<svg width="24" height="24" viewBox="0 0 24 24" fill="none" xmlns="http://www.w3.org/2000/svg">
<path d="M3 13.125C3 12.504 3.504 12 4.125 12H6.375C6.996 12 7.5 12.504 7.5 13.125V19.875C7.5 20.496 6.996 21 6.375 21H4.125C3.82663 21 3.54048 20.8815 3.3295 20.6705C3.11853 20.4595 3 20.1734 3 19.875V13.125Z" fill="#079A6D" stroke="#079A6D" stroke-width="1.5" stroke-linecap="round" stroke-linejoin="round"/>
<path d="M11.875 7.5C11.254 7.5 10.75 8.004 10.75 8.625V19.875C10.75 20.1734 10.8685 20.4595 11.0795 20.6705C11.2905 20.8815 11.5766 21 11.875 21H14.125C14.746 21 15.25 20.496 15.25 19.875V8.625C15.25 8.004 14.746 7.5 14.125 7.5H11.875Z" fill="#0787AD" stroke="#0787AD" stroke-width="1.5" stroke-linecap="round" stroke-linejoin="round"/>
<path d="M19.625 3C19.004 3 18.5 3.504 18.5 4.125V19.875C18.5 20.1734 18.6185 20.4595 18.8295 20.6705C19.0405 20.8815 19.3266 21 19.625 21H21.875C22.496 21 23 20.496 23 19.875V4.125C23 3.504 22.496 3 21.875 3H19.625Z" fill="#8289AD" stroke="#8289AD" stroke-width="1.5" stroke-linecap="round" stroke-linejoin="round"/>
</svg>
