<svg width="461" height="584" viewBox="0 0 461 584" fill="none" xmlns="http://www.w3.org/2000/svg">
<path d="M736.976 368.933C730.69 371.218 723.865 372.311 717.475 374.427C714.48 370.547 709.125 367.316 705.191 364.354C683.191 347.79 660.94 336.304 633.612 331.343C602.105 325.624 563.448 327.031 532.868 336.971C528.874 338.27 523.304 339.489 519.919 341.972C514.776 345.744 510.921 356.903 509.83 363.035C509.444 365.206 509.639 367.42 509.256 369.572C509.072 370.604 508.76 371.362 507.834 371.945C506.757 372.624 505.168 372.949 503.942 372.514C503.005 372.18 502.422 371.391 502.075 370.5C499.684 364.348 503.919 352.445 506.547 346.831C503.949 347.645 501.343 349.105 498.868 350.265C491.272 353.827 483.904 357.502 476.816 362.008C473.608 364.047 454.158 377.228 452.925 379.29C452.802 379.497 452.821 379.76 452.769 379.996C452.021 380.189 451.487 380.327 450.838 380.768C449.731 381.68 448.581 382.543 447.666 383.654L447.227 383.984C446.75 384.949 446.857 385.828 446.899 386.869C446.696 387.126 446.582 387.422 446.441 387.717L446.077 387.789C442.468 395.046 444.29 414.376 445.45 422.967L445.764 423.011C452.156 423.97 457.389 428.966 461.079 433.951C455.119 430.299 452.983 426.136 445.641 424.298C446.533 430.503 452.152 458.922 454.911 462.955L454.983 463.568C454.858 468.181 460.93 481.612 462.679 486.47L461.373 486.92C462.754 489.902 464.212 492.87 465.468 495.907C463.333 500.841 462.943 505.47 462.625 510.772C455.692 499.509 450.075 487.866 444.097 476.106C441.375 470.75 438.424 465.524 435.632 460.207C434.379 457.819 433.196 455.35 431.805 453.042C430.761 450.982 428.421 447.31 426.193 446.399C425.245 446.012 424.438 446.111 423.549 446.584C421.004 447.936 419.379 452.966 418.616 455.599C413.901 471.854 417.74 491.077 422.667 506.949C424.944 514.285 427.798 521.604 428.978 529.22C430.162 536.866 429.581 544.523 427.876 552.028C427.028 540.54 426.711 531.121 419.916 521.177C419.479 520.761 419.038 520.358 418.578 519.967C419.259 521.203 420.167 522.048 420.622 523.392C421.305 525.405 422.939 527.152 423.737 529.098C424.468 530.879 424.515 532.973 425.395 534.679C425.902 535.663 425.947 536.991 426.194 538.075C426.298 538.533 426.247 538.342 426.202 538.882C426.146 539.563 426.135 539.261 426.348 539.922C426.591 540.68 426.546 541.253 426.491 542.032C425.785 541.444 425.543 538.203 425.274 537.245C424.418 534.194 419.452 523.552 416.644 522.653C409.272 515.196 402.505 505.082 398.442 495.456C397.222 492.567 396.492 489.535 395.346 486.659L395.683 485.671L395.127 485.153C394.409 484.869 393.738 484.662 393.171 484.121C392.853 483.816 393.002 483.862 392.735 483.828L392.501 486.823L391.596 486.548C391.274 486.608 391.201 486.611 390.85 486.74C383.799 489.327 379.427 497.588 376.375 503.907L375.989 503.614C376.571 502.101 377.153 500.606 377.976 499.204C379.105 497.279 381.51 494.676 382.082 492.614C382.261 491.968 382.005 491.136 381.765 490.545C381.031 491.193 380.514 491.827 379.536 492.036L379.194 491.674L377.525 490.927C378.027 488.769 379.204 485.214 377.984 483.159C377.8 482.849 377.559 482.612 377.319 482.347L378.074 480.434C377.169 480.096 376.156 480.065 375.271 480.485C367.011 484.409 361.315 518.339 358.015 527.937C353.183 541.99 343.313 552.918 330.015 559.458C331.102 554.754 331.924 545.607 329.738 541.155C329.309 540.282 328.833 539.974 327.932 539.693C326.053 540.109 324.219 541.763 322.683 542.882C318.435 545.978 314.187 549.134 310.295 552.677C307.767 554.978 305.479 557.512 302.884 559.745C303.049 558.793 303.201 557.821 303.244 556.854C303.311 555.374 303.128 553.307 301.913 552.257C300.678 551.188 299.127 551.134 297.572 551.341C289.832 552.369 285.857 560.719 282.755 560.934C281.995 560.321 281.368 559.792 280.426 559.474C276.823 559.937 270.993 564.049 267.721 565.936L267.558 566.337C268.031 566.189 268.463 566.068 268.965 566.092C269.009 566.094 269.049 566.122 269.09 566.138C269.852 566.044 270.512 566.056 271.072 565.465L270.632 564.735C272.456 563.343 274.874 562.733 276.794 561.403C277.641 560.815 278.464 560.23 279.535 560.167C280.522 560.109 281.274 560.49 282.008 561.089C282.386 561.398 282.61 561.579 283.052 561.819C287.39 558.887 289.682 554.739 294.81 552.672C296.578 551.959 298.765 551.132 300.616 551.996C302.353 552.808 302.161 554.53 302.759 556.1L302.979 556.67L302.685 556.592C302.003 555.691 301.59 554.832 301.178 553.779C300.939 553.167 300.327 552.949 299.781 552.599C291.908 552.282 287.564 559.527 282.032 563.787L281.769 563.644C281.526 562.843 281.37 562.127 280.771 561.508C280.055 561.203 279.646 561.035 278.875 561.303C277.539 561.767 269.74 566.289 269.302 567.295C265.507 569.399 261.607 571.321 257.884 573.554C252.328 576.886 246.971 580.587 241.355 583.812C247 578.324 272.745 546.692 272.703 540.344C272.7 539.836 272.445 539.767 272.108 539.445C270.423 539.051 268.672 539.369 266.986 539.644C270.554 535.903 280.62 527.265 280.705 521.836C280.721 520.817 280.391 519.938 279.631 519.238C277.528 517.304 273.585 517.653 270.932 517.876C268.642 518.069 266.368 518.421 264.098 518.767C269.674 513.265 280.212 503.216 286.78 499.388C288.687 497.956 292.722 495.553 292.792 492.937C292.822 491.751 291.915 490.836 291.046 490.16C288.795 488.411 286.222 486.914 283.831 485.353C286.702 483.826 289.631 482.501 292.605 481.191C316.425 471.911 333.788 476.295 349.454 451.687C334.113 460.082 319.58 469.333 301.947 471.923C296.612 472.707 291.306 472.91 286.092 471.361C280.726 469.769 275.904 467.061 271.061 464.328C259.099 457.577 247.952 452.264 233.888 454.655C234.058 453.928 234.072 453.502 234.771 453.083C234.947 452.978 235.188 452.954 235.386 452.923C240.477 449.183 244.587 444.625 250.485 441.968C258.305 438.446 281.429 436.423 285.655 430.621C286.491 429.474 286.62 428.367 286.4 427.002C286.069 424.275 284.442 422.785 282.354 421.167C282.244 421.081 282.129 420.999 282.016 420.915C281.108 420.886 280.51 420.894 279.727 420.359L278.934 421.321C274.284 419.111 268.353 417.48 263.213 416.961C266.412 415.605 269.642 414.449 273.054 413.751C288.037 410.686 309.374 412.024 324.594 413.595C335.913 414.764 348.444 416.634 359.702 414.181C365.346 412.952 369.974 410.507 374.457 406.919L374.052 406.745C368.985 404.605 363.333 403.714 358.123 401.907C341.918 396.288 326.262 389.548 311.561 380.652C303.482 375.764 295.851 370.153 288.423 364.335C283.666 360.609 278.885 356.301 273.686 353.223C277.862 354.16 282.025 355.776 286.094 357.12C286.072 357.796 286.288 358.292 286.512 358.92C293.37 360.497 299.973 362.145 307.018 362.739C315.389 363.446 326.667 362.325 334.317 364.756C332.77 363.046 331.175 361.609 329.344 360.21C333.828 360.472 352.775 360.56 356.087 358.828C356.382 358.673 356.398 358.678 356.439 358.36C356.774 355.76 352.718 351.327 351.092 349.399C349.924 348.956 349.139 348.528 348.565 347.342L348.539 346.31C357.869 348.764 367.289 350.078 375.716 355.169C378.957 357.128 381.975 359.545 385.031 361.78C385.727 358.518 385.402 355.091 385.116 351.795C383.869 346.441 382.134 337.85 377.126 334.749C376.379 334.295 375.622 333.858 374.856 333.438L375.286 333.56C379.552 334.741 384.129 335.046 388.48 335.958C406.394 339.712 417.102 345.999 428.838 360.119C434.022 366.357 438.713 372.494 445.654 376.919C453.323 370.799 460.701 364.185 468.746 358.563C482.162 349.187 496.526 342.779 511.693 336.833C520.053 333.556 528.706 330.337 537.377 327.992C527.374 326.626 517.256 326.398 507.18 326.047L468.965 324.713C453.828 324.226 438.712 323.365 423.618 322.13C416.7 321.501 409.832 320.386 402.94 319.537C391.41 318.118 379.88 316.872 368.368 315.295C351.15 312.937 333.722 310.998 316.977 306.162C299.641 301.155 282.673 293.272 267.083 284.243C267.269 285.647 267.534 287.08 267.6 288.493C268.952 291.578 269.621 297.89 270.198 301.344C273.626 321.868 265.284 341.28 253.577 357.706C253.069 356.318 252.64 355.025 252.407 353.555C251.14 349.587 249.23 343 245.299 340.788C244.417 340.293 243.556 340.193 242.585 340.528C240.92 341.1 239.338 343.051 238.2 344.352C232.257 351.151 228.335 358.486 224.667 366.668C224.323 365.324 223.876 363.942 223.644 362.578C224.094 361.999 224.403 361.602 224.623 360.889C224.256 359.604 223.91 358.309 223.503 357.036C222.557 355.371 221.511 353.519 219.497 353.037C218.462 352.789 217.513 353.043 216.631 353.601C211.69 356.731 208.33 369.25 206.199 370.255C205.92 369.918 205.745 369.708 205.579 369.297L204.912 369.772L203.642 369.377L203.487 369.111C203.364 368.417 203.26 367.719 203.173 367.02L203.69 366.379C199.197 367.584 188.345 384.582 184.5 388.68C184.428 388.742 184.354 388.802 184.283 388.866C183.986 389.135 183.758 389.422 183.513 389.738C183.199 389.761 182.906 389.812 182.595 389.745C181.824 391.898 180.907 394.008 180.038 396.124L179.721 395.957C180.501 386.659 181.498 377.275 183.682 368.189C186.83 355.089 191.983 342.726 195.776 329.839C198.032 322.178 199.221 314.348 200.816 306.54C201.389 303.732 203.748 298.784 201.895 296.37C199.311 295.157 197.238 295.18 194.559 296.158C190.735 297.552 187.004 300.313 184.138 303.165C179.711 307.57 176.24 312.899 172.724 318.033C168.509 324.187 164.348 330.419 159.905 336.412C154.202 344.103 148.083 351.441 140.655 357.529C137.93 359.762 134.666 362.542 131.289 363.669C130.738 363.925 130.249 364.184 129.748 364.526C129.34 364.806 129.109 364.951 128.646 365.082C127.227 365.875 125.855 366.687 124.294 367.177L123.311 366.874C126.745 362.336 132.404 354.939 131.764 348.891C131.673 348.043 131.308 347.245 130.547 346.802C128.628 345.686 125.366 346.746 123.466 347.478C119.24 349.105 115.346 351.993 111.347 354.131C100.261 360.059 86.3608 361.487 74.1191 358.913C75.1252 357.88 75.5833 357.905 76.9688 357.649C79.6152 356.165 82.4613 354.8 84.6743 352.687C95.8321 342.035 97.6329 321.953 105.58 308.826C107.961 304.892 110.853 301.764 114.23 298.672C124.549 289.222 142.482 283.62 155.634 279.052C158.111 278.191 160.733 277.715 163.17 276.734C164.304 276.277 165.261 275.847 165.798 274.681C165.624 273.902 165.549 273.665 164.894 273.126C161.915 270.673 152.336 272.923 148.819 273.73C137.028 276.435 125.377 280.006 113.831 283.609C107.549 285.569 101.285 288.178 94.7732 289.236C88.3115 290.287 81.4818 290.156 75.0277 289.109C71.5578 288.547 68.1378 287.499 64.8635 286.233C63.3922 285.664 61.9309 284.878 60.4154 284.453C58.5837 283.468 56.7646 282.459 54.9587 281.427C63.0802 278.706 67.717 275.77 73.8966 269.806C75.3031 268.448 77.0976 266.888 77.984 265.125C78.1722 264.751 78.2143 264.429 78.203 264.016L77.9182 263.758C76.9606 262.888 73.4677 262.97 72.1406 262.869C65.656 262.372 59.2849 261.704 52.9345 260.233C48.0576 259.104 43.2954 257.472 38.373 256.537C41.3303 256.137 43.6957 255.567 46.3028 254.053C47.3958 253.324 47.9284 252.77 48.5565 251.601C48.5267 250.091 48.2434 249.192 47.1103 248.134C43.6313 244.885 37.7525 242.737 33.2915 241.279C31.4774 240.686 28.5226 240.16 27.0767 238.971C27.2437 238.335 27.1125 238.601 27.4183 238.149L26.5588 237.366L26.3425 236.932C26.216 236.138 26.0065 235.268 25.9746 234.469C17.7001 230.572 9.35958 226.82 0.953975 223.214C2.92829 223.518 5.38304 224.388 7.29518 224.412C7.57342 224.054 7.84152 223.629 8.18702 223.336C6.93668 223.094 5.69335 222.789 4.45001 222.513C11.6803 222.17 18.9088 222.262 26.1272 221.645C27.9051 221.493 31.2274 221.576 32.4255 220.152C32.5167 218.991 31.9828 218.169 31.4708 217.156C37.5859 219.173 44.5973 220.479 50.7154 217.887C50.943 217.607 51.1634 217.322 51.3759 217.031C52.6388 215.278 52.762 214.137 52.3998 212.038L51.9876 210.83C52.5173 210.353 52.7116 210.444 53.3998 210.479C55.8701 210.605 58.3212 211.41 60.7844 211.697C67.0703 212.429 73.3994 212.422 79.7166 212.48C82.3784 212.505 85.1328 212.783 87.773 212.451C83.0105 205.586 78.301 198.777 72.902 192.39C79.5695 192.442 86.469 192.248 93.0735 193.207C107.644 195.323 119.854 205.439 130.979 214.402C135.686 218.194 140.352 222.388 145.473 225.601C147.813 227.07 153.866 231.687 156.631 229.306C157.196 228.819 157.295 228.165 157.205 227.464C156.447 221.535 137.719 204.896 132.868 199.124C131.483 197.477 130.207 195.749 129.038 193.942C127.871 192.135 126.819 190.262 125.886 188.323C118.819 173.274 124.089 158.129 121.275 142.634C120.571 138.762 118.895 135.383 116.74 132.121C116.315 131.477 115.531 130.647 115.472 129.884L115.731 129.857L116.136 129.564C114.815 128.767 113.522 127.918 112.22 127.089C124.144 130.705 130.645 133.457 139.915 142.215C143.384 145.492 146.762 149.018 150.679 151.765C153.105 153.466 156.336 155.289 159.394 154.64C161.128 154.272 162.315 153.129 163.25 151.675C165.791 147.719 164.32 142.514 163.445 138.25C164.152 138.891 164.794 139.641 165.448 140.337C177.447 154.72 183.082 171.101 188.721 188.649C190.697 194.799 192.545 201.134 195.225 207.025C197.228 211.428 206.581 226.686 211.455 227.803C211.955 227.918 212.38 228 212.828 227.72C215.692 225.932 216.905 217.625 217.315 214.492C218.305 206.943 218.478 199.18 218.699 191.572C219.08 178.468 219.092 165.368 219.566 152.263C219.801 145.801 219.629 138.959 220.711 132.59C220.733 132.46 220.757 132.33 220.781 132.199C220.801 131.298 220.793 130.65 221.452 129.941C221.921 129.438 222.587 129.007 223.141 128.594C224.162 133.176 225.898 136.875 227.682 141.147C227.731 141.264 227.775 141.383 227.822 141.501C229.816 144.324 231.816 147.027 234.348 149.394C233.581 147.468 232.67 145.505 232.117 143.51C240.897 148.359 249.607 149.1 259.236 146.287C266.298 144.225 272.862 140.94 279.634 138.132C283.83 136.392 288.263 135.287 292.733 134.524C306.948 132.097 315.11 136.042 327.365 142.667C334.684 146.625 341.923 152.852 349.998 154.904C349.731 151.189 348.088 148.829 345.319 146.422C338.508 140.501 329.149 136.805 320.98 133.178C299.955 123.843 277.962 111.884 270.539 88.375C270.882 88.2485 271.187 87.9848 271.487 87.7771L271.494 87.2755C273.886 87.7135 276.206 88.4903 278.594 88.9509C284.878 90.1633 292.216 90.7992 298.596 90.3822C289.964 82.1764 282.908 72.4842 275.738 63.0209C279.313 63.4336 282.872 63.9595 286.414 64.5973C284.415 61.2064 282.815 57.6016 280.911 54.1583C279.563 51.7199 276.965 48.4987 276.189 45.8853C276.794 45.2122 277.077 44.7506 277.404 43.9068L278.205 43.9314C275.412 35.3356 271.55 26.8627 267.376 18.8557C265.874 17.0236 264.675 15.3977 263.805 13.1649C263.081 12.6858 262.94 12.6382 262.074 12.5848C259.919 8.60825 257.055 4.35842 255.634 0.0791939C259.29 4.54102 262.869 8.86786 267.094 12.811C272.59 17.7272 278.27 22.3705 284.046 26.9523C286.922 29.2331 289.966 32.029 293.259 33.6479L293.532 33.4558L293.862 31.2357L294.828 32.1118L294.832 32.8239C295.114 33.218 295.39 33.5963 295.702 33.9686C298.57 37.3987 306.281 45.9988 310.663 46.1419C311.664 46.1741 312.619 45.8769 313.333 45.1485C315.087 43.3608 315.052 40.4871 314.989 38.1573C319.651 43.4843 322.989 49.8945 327.859 55.1045C329.905 57.2925 333.748 60.2398 336.914 60.221C337.774 60.2155 338.508 59.9789 339.088 59.3232C341.439 56.6647 342.367 50.6758 342.257 47.2476C342.186 47.1121 342.107 46.9797 342.043 46.8408C341.738 46.176 341.672 45.575 341.591 44.8609C341.568 44.987 341.547 45.1131 341.521 45.2381C341.36 46.0097 341.151 46.7687 340.761 47.4555C340.693 44.424 341.18 41.3774 340.704 38.362C351.829 47.6366 365.729 63.2837 367.497 78.3116C368.858 84.4263 368.636 91.0988 369.233 97.3401C370.299 108.464 375.011 119.23 379.799 129.208C380.157 123.036 379.34 116.944 378.874 110.802C378.179 101.651 378.276 92.3847 379.973 83.343C384.838 57.417 406.129 53.5371 411.473 34.5724C413.703 26.6562 411.292 20.893 407.437 14.046C412.253 19.6677 418.29 24.3236 421.856 30.8991C425.297 37.2429 426.646 44.595 426.946 51.7457C427.143 56.4186 424.913 69.3265 427.165 72.2064C427.801 73.0195 428.673 73.4305 429.69 73.4839C433.22 73.6669 437.7 70.2463 440.238 68.0079C444.629 64.1359 443.845 60.3823 444.132 55.1394C451.633 76.7446 438.158 102.605 430.287 122.558C428.242 127.844 426.428 133.208 424.846 138.65C423.042 144.792 421.216 151.794 422.619 158.202C422.891 159.447 423.202 160.456 424.323 161.158C426.638 161.28 429.936 158.294 431.681 156.922C441.33 149.341 450.115 139.981 457.738 130.395C465.402 120.756 472.432 110.648 480.865 101.636C488.112 93.8903 496.532 86.5838 505.67 81.1522C502.945 84.4752 500.174 87.7925 498.05 91.5458C494.83 97.236 492.939 103.463 490.604 109.533C487.997 116.31 485.221 123.016 482.642 129.807C486.347 130.202 490.295 129.702 494.036 129.744C488.628 135.836 483.865 142.148 480.005 149.347C479.551 150.684 478.777 152.258 479.396 153.632C482.358 155.843 488.885 155.346 492.395 155.088C489.214 161.24 485.901 166.871 481.349 172.138C482.3 172.6 483.214 173.196 484.128 173.728C489.082 176.459 495.023 177.281 500.28 179.307C506.223 181.597 511.987 184.494 517.874 186.951C526.705 190.635 535.66 193.981 544.515 197.592C544.35 196.746 544.088 195.812 544.049 194.957C544.515 193.129 543.423 190.322 542.499 188.783C538.175 181.584 529.311 176.954 522.207 172.942C517.579 169.486 513.187 165.888 509.278 161.61C507.13 159.172 505.435 156.596 503.802 153.796C507.323 155.123 511.004 156.028 514.798 155.805L515.235 155.415C515.195 152.961 512.36 148.081 511.387 145.534C508.522 138.09 507.149 130.351 505.649 122.553L505.897 122.219C507.155 122.487 509.077 124.586 510.095 125.479C513.835 128.29 517.485 130.801 521.964 132.273C521.186 131.614 520.323 130.994 519.753 130.139C526.53 132.428 534.911 132.55 540.886 136.641C546.9 140.759 547.074 147.135 548.331 153.55C548.799 155.938 549.689 161.377 551.816 162.801L552.249 162.501L552.51 162.578C554.184 160.249 554.13 157.626 553.7 154.886C553.124 151.21 551.76 147.555 550.644 144.01C547.765 134.859 547.274 130.102 547.692 120.526L548.255 114.849C548.924 114.833 551.3 117.998 552.009 118.66C553.322 119.882 554.973 121.611 556.945 121.444C558.102 121.346 558.991 120.574 559.628 119.66C561.893 116.412 561.928 111.641 561.436 107.862C561.326 107.118 561.129 106.418 561.45 105.705C563.256 106.147 564.136 110.047 566.04 109.3C568.983 106.089 570.657 100.042 572.319 95.9588C572.656 95.475 572.827 94.957 573.418 94.8285L573.522 96.6573C572.839 107.391 573.168 118.079 572.1 128.827C573.553 128.624 572.532 122.805 573.652 121.498C573.846 123.547 573.041 127.361 574.098 128.949C574.639 133.113 573.451 141.445 573.516 146.344C575.958 140.61 579.23 135.181 582.536 129.907C581.334 133.817 579.272 137.289 577.289 140.837C572.73 148.995 572.555 154.01 571.762 163.201C577.181 155.581 585.434 148.281 593.72 143.92C589.013 148.64 583.221 152.275 578.252 157.474C576.075 159.752 573.074 162.58 571.723 165.441C569.097 171.003 569.266 199.46 567.963 208.439C570.776 203.093 574.778 198.133 579.544 194.425C580.826 193.427 586.709 189.836 587.084 188.799C587.851 188.782 588.37 188.577 589.078 188.309C599.43 184.169 610.802 179.345 619.78 172.651C622.843 170.366 625.555 167.75 628.289 165.092C625.12 170.834 618.38 175.804 612.942 179.245C610.666 180.685 608.058 182.009 605.971 183.697L605.517 184.071C604.868 184.546 604.906 184.52 604.754 185.313C603.522 184.824 597.036 187.952 595.471 188.593C577.652 195.888 569.823 211.828 562.797 228.677C568.057 227.869 573.162 226.205 578.394 225.452L578.574 225.629C579.873 225.859 593.616 222.313 596.879 221.983C598.748 221.794 601.422 220.919 603.242 221.445C600.368 222.586 596.522 222.531 593.442 223.138C589.315 223.95 585.35 225.123 581.255 226.032C580.099 226.288 578.741 226.551 578.096 227.567C574.139 228.919 570.102 230.571 566.032 231.509C565.686 231.839 565.403 232.296 565.121 232.679C563.984 232.21 562.852 231.715 561.688 231.318L561.674 232.56L562.778 233.524C562.631 234.138 562.446 234.68 562.199 235.261L561.544 235.039C561.484 235.106 561.416 235.166 561.366 235.24C560.423 236.618 559.709 243.008 559.38 245.025C556.848 260.542 559.346 278.296 564.778 292.977C566.074 296.477 567.406 300.019 568.96 303.413C569.509 304.61 570.505 305.765 570.862 307.002C571.34 308.659 571.265 310.804 571.546 312.565C576.983 312.833 582.585 312.418 588.043 312.408C605.598 312.373 623.664 312.605 640.828 316.677C639.558 312.154 636.585 306.177 635.761 302.093C635.499 300.798 635.505 299.098 636.418 298.032C637.077 297.264 637.959 296.781 638.964 296.659C643.702 296.087 645.474 304.715 646.732 308.081C647.459 310.027 648.293 311.916 649.395 313.682C651.558 317.151 654.293 319.502 657.937 321.34C665.499 325.156 673.546 327.978 681.026 331.991C700.832 342.617 718.791 355.805 736.976 368.933ZM280.607 174.818C265.594 169.47 248.506 167.153 237.062 155.015C237.877 158.962 239.089 166.004 242.669 168.468C243.849 169.281 245.319 169.644 246.736 169.387C247.739 169.205 248.734 168.834 249.68 168.461L250.293 168.458C250.532 172.579 244.394 186.021 248.818 189.277C249.669 189.904 250.679 189.893 251.657 189.645C254.601 188.899 257.822 186.317 260.108 184.358C257.898 182.839 255.799 181.217 253.703 179.544C263.919 181.208 271.461 179.693 280.607 174.818ZM354.62 202.846C359.275 200.217 363.975 197.507 368.065 194.041C362.494 190.371 356.591 187.915 349.964 186.928C343.067 185.9 335.954 186.529 329.057 187.307C306.469 189.857 285.306 195.513 263.183 186.331C262.698 191.001 261.859 202.626 264.899 206.308C265.596 207.153 266.514 207.667 267.613 207.754C270.885 208.013 284.192 199.999 287.261 197.747C287.171 198.751 287.183 199.921 286.915 200.889C286.766 203.208 286.335 205.56 286.017 207.865L284.898 217.009C284.711 222.975 283.165 228.795 282.414 234.691C287.653 231.565 292.83 228.391 298.437 225.947C309.359 221.186 320.805 218.028 331.91 213.784C335.825 212.244 339.678 210.562 343.468 208.737C347.258 206.911 350.976 204.947 354.62 202.846ZM483.535 312.931C479.754 309.658 475.69 306.72 472.041 303.292C458.209 290.294 446.755 274.236 437.692 257.608C433.939 250.723 430.781 243.279 427.734 236.049C426.574 233.296 425.576 230.434 424.301 227.734C424.013 227.125 423.82 226.747 423.256 226.35C418.126 240.186 410.019 252.28 396.26 258.548C390.888 260.996 385.328 262.94 379.838 265.091C374.115 267.332 368.392 269.921 362.412 271.382C363.927 267.831 369.584 256.013 368.502 252.584C368.239 251.752 367.742 251.366 366.968 251.021C365.699 250.455 364.051 250.465 362.697 250.59C359.364 250.897 355.942 251.869 352.663 252.594C345.906 254.09 339.182 255.718 332.416 257.179C334.796 254.27 340.191 247.374 339.969 243.599C339.606 242.941 339.537 242.742 338.774 242.493C335.108 241.294 319.898 249.287 315.503 250.888C316.235 248.969 317.34 246.849 316.688 244.776C315.84 244.183 314.533 244.227 313.496 244.202C309.095 244.097 304.607 244.595 300.203 244.795C293.091 245.186 285.978 245.188 278.865 244.802C278.216 246.359 277.733 247.77 277.409 249.436C279.207 248.324 281.092 246.458 282.962 245.673C282.912 246.231 283.012 245.961 282.58 246.449L282.546 246.782L283.387 246.819C283.751 249.598 272.567 269.53 270.448 272.519C269.951 273.952 268.803 275.348 267.97 276.625C272.216 279.353 276.77 281.629 281.253 283.941C298.097 292.626 314.913 298.621 333.379 302.88C341.396 304.729 350.268 306.484 358.518 306.338C357.934 304.636 357.217 302.734 357.372 300.911C357.615 298.028 360.255 294.919 362.401 293.154C363.164 292.526 363.694 292.158 364.689 292.273C365.745 294.076 365.785 296.976 366.434 299.058L366.563 299.463C371.145 302.977 377.525 303.736 383.04 304.882C391.363 306.612 399.652 308.151 408.102 309.144C415.226 309.982 422.511 310.197 429.675 310.633C447.613 311.744 465.567 312.51 483.535 312.931ZM489.474 186.191C488.446 185.009 487.556 183.765 486.661 182.484L486.87 180.43L486.546 180.148C485.957 179.026 484.118 177.057 483.976 175.962L484.087 175.912C484.205 175.111 484.256 174.544 484.123 173.732C483.209 173.2 482.295 172.604 481.344 172.142L480.831 172.654C478.455 175.365 473.279 180.551 473.042 184.197C472.993 184.953 473.158 185.656 473.738 186.187C475.872 188.142 486.206 186.509 489.474 186.191ZM567.24 312.98C564.933 306.477 561.671 300.277 559.293 293.762C551.626 272.76 551.783 253.263 557.843 231.942L555.19 232.611L554.933 231.151C552.566 231.781 550.214 232.463 547.877 233.197C539.447 235.682 532.626 235.995 523.989 234.177C521.817 233.563 519.685 232.833 517.592 231.988C515.499 231.142 513.458 230.186 511.469 229.119L512.763 228.721L513.294 228.393C514.024 227.455 515.449 226.366 515.755 225.26C517.317 223.851 519.387 222.458 519.749 220.267C519.431 218.742 518.547 218.178 517.315 217.373L514.817 215.746C514.828 215.304 514.807 215.069 515.008 214.666C513.442 213.443 510.695 211.777 510.277 209.68C510.096 208.77 510.691 207.804 511.286 207.163C512.368 205.996 513.783 205.287 514.884 204.1C514.277 203.864 513.894 203.73 513.474 203.219C512.907 202.55 512.318 202.62 511.479 202.55C507.642 202.228 503.822 201.899 499.989 201.494L498.339 201.326C497.967 200.685 498.002 200.408 498.187 199.689C498.435 198.729 498.733 197.963 498.828 196.957C496.59 194.222 494.294 191.536 491.942 188.898C487.177 195.996 481.042 203.624 474.24 208.92C474.12 209.054 474.005 209.192 473.88 209.32C462.023 221.552 446.618 222.855 430.488 223.357C432.437 228.811 434.972 234.104 437.37 239.374C450.356 267.917 468.743 295.281 495.208 312.969C501.357 312.866 507.499 313.065 513.644 313C524.298 312.888 534.932 312.646 545.59 312.73C552.835 312.788 560 312.51 567.24 312.98Z" fill="#D9EFD2"/>
</svg>
