<?xml version="1.0" encoding="UTF-8"?>
<svg id="Layer_1" data-name="Layer 1" xmlns="http://www.w3.org/2000/svg" width="45" height="45" version="1.1" viewBox="0 0 45 45">
  <rect x="26.2" y="21.3" width="2.5" height="9.4" style="fill: #fff; stroke-width: 0px;"/>
  <rect x="21.2" y="21.3" width="2.5" height="9.4" style="fill: #fff; stroke-width: 0px;"/>
  <rect x="16.2" y="21.3" width="2.5" height="9.4" style="fill: #fff; stroke-width: 0px;"/>
  <polygon points="22.5 12.4 16.6 16.2 28.4 16.2 22.5 12.4" style="fill: #fff; stroke-width: 0px;"/>
  <path d="M22.5,0C10.1,0,0,10.1,0,22.5s10.1,22.5,22.5,22.5,22.5-10.1,22.5-22.5S34.9,0,22.5,0ZM10.3,17.4l10.8-7.4c.8-.5,2.1-.5,2.9,0l10.8,7.4c.8.5.7,1-.3,1H10.6c-1,0-1.1-.4-.3-1ZM32.2,30.7v1.8H12.8v-1.8h1v-9.4h-1v-1.8h19.4v1.8h-1v9.4h1ZM35.3,35.3H9.7v-1c0-.4.4-.8.8-.8h24c.4,0,.8.4.8.8v1Z" style="fill: #fff; stroke-width: 0px;"/>
</svg>