<?xml version="1.0" encoding="utf-8"?>
<!-- Generator: Adobe Illustrator 27.7.0, SVG Export Plug-In . SVG Version: 6.00 Build 0)  -->
<svg version="1.1" id="Layer_1" xmlns="http://www.w3.org/2000/svg" xmlns:xlink="http://www.w3.org/1999/xlink" x="0px" y="0px"
	 width="45px" height="45px" viewBox="0 0 45 45" style="enable-background:new 0 0 45 45;" xml:space="preserve">
<style type="text/css">
	.st0{clip-path:url(#SVGID_00000117663684173248855370000014752238663982017441_);}
	.st1{fill:#FFFFFF;}
</style>
<g>
	<defs>
		<rect id="SVGID_1_" y="0" width="45" height="45"/>
	</defs>
	<clipPath id="SVGID_00000142881731254404191830000010038336575083412647_">
		<use xlink:href="#SVGID_1_"  style="overflow:visible;"/>
	</clipPath>
	<g id="a" style="clip-path:url(#SVGID_00000142881731254404191830000010038336575083412647_);">
		<path class="st1" d="M45,22.6C44.9,10.2,34.8,0.2,22.4,0.3S-0.1,10.5,0,22.9c0.1,11,8.1,20.4,19,22.1V29.2h-5.7v-6.5H19v-5
			c0-5.7,3.4-8.8,8.5-8.8c1.7,0,3.4,0.2,5,0.4v5.6h-2.8c-2.8,0-3.7,1.7-3.7,3.5v4.2h6.2l-1,6.5H26V45C37,43.2,45,33.7,45,22.6z"/>
	</g>
</g>
</svg>
