<?xml version="1.0" encoding="utf-8"?>
<!-- Generator: Adobe Illustrator 27.7.0, SVG Export Plug-In . SVG Version: 6.00 Build 0)  -->
<svg version="1.1" id="Layer_1" xmlns="http://www.w3.org/2000/svg" xmlns:xlink="http://www.w3.org/1999/xlink" x="0px" y="0px"
	 width="45px" height="45px" viewBox="0 0 45 45" style="enable-background:new 0 0 45 45;" xml:space="preserve">
<style type="text/css">
	.st0{clip-path:url(#SVGID_00000112631356961119142460000016166071654992780733_);}
	.st1{fill:#FFFFFF;}
</style>
<g>
	<defs>
		<rect id="SVGID_1_" width="45" height="45"/>
	</defs>
	<clipPath id="SVGID_00000083804720630847018350000017359768034886268319_">
		<use xlink:href="#SVGID_1_"  style="overflow:visible;"/>
	</clipPath>
	<g id="a" style="clip-path:url(#SVGID_00000083804720630847018350000017359768034886268319_);">
		<path class="st1" d="M22.5,45c-3,0-6-0.6-8.8-1.8c-2.7-1.1-5.1-2.8-7.2-4.8c-2.1-2-3.7-4.5-4.8-7.2C0.6,28.5,0,25.5,0,22.5
			c0-3,0.6-6,1.8-8.8c1.1-2.7,2.8-5.1,4.8-7.2c2-2.1,4.5-3.7,7.2-4.8C16.5,0.6,19.5,0,22.5,0c3,0,6,0.6,8.8,1.8
			c2.7,1.1,5.1,2.8,7.2,4.8c2.1,2,3.7,4.5,4.8,7.2c1.2,2.8,1.8,5.7,1.8,8.8c0,3-0.6,6-1.8,8.8c-1.1,2.7-2.8,5.1-4.8,7.2
			c-2,2.1-4.5,3.7-7.2,4.8C28.5,44.4,25.5,45,22.5,45z M22.6,11.2c-3.1,0-3.5,0-4.7,0.1c-0.9,0-1.9,0.2-2.8,0.5
			c-0.8,0.3-1.4,0.7-2,1.3c-0.6,0.6-1,1.3-1.3,2c-0.3,0.9-0.5,1.8-0.5,2.8c-0.1,1.2-0.1,1.6-0.1,4.7s0,3.5,0.1,4.7
			c0,0.9,0.2,1.9,0.5,2.8c0.3,0.8,0.7,1.4,1.3,2c0.6,0.6,1.3,1,2,1.3c0.9,0.3,1.8,0.5,2.8,0.5c1.2,0.1,1.6,0.1,4.7,0.1
			s3.5,0,4.7-0.1c0.9,0,1.9-0.2,2.8-0.5c0.8-0.3,1.4-0.7,2-1.3c0.6-0.6,1-1.3,1.3-2c0.3-0.9,0.5-1.8,0.5-2.8
			c0.1-1.2,0.1-1.6,0.1-4.7s0-3.5-0.1-4.7c0-0.9-0.2-1.9-0.5-2.8c-0.3-0.8-0.7-1.4-1.3-2c-0.6-0.6-1.3-1-2-1.3
			c-0.9-0.3-1.8-0.5-2.8-0.5C26.1,11.3,25.7,11.2,22.6,11.2z M22.6,31.9c-3,0-3.4,0-4.6-0.1c-0.7,0-1.4-0.1-2.1-0.4
			c-0.5-0.2-0.9-0.5-1.3-0.8c-0.4-0.4-0.7-0.8-0.8-1.3c-0.2-0.7-0.4-1.4-0.4-2.1c-0.1-1.2-0.1-1.6-0.1-4.6s0-3.4,0.1-4.6
			c0-0.7,0.1-1.4,0.4-2.1c0.2-0.5,0.5-0.9,0.8-1.3c0.4-0.4,0.8-0.7,1.3-0.8c0.7-0.2,1.4-0.4,2.1-0.4c1.2-0.1,1.6-0.1,4.6-0.1
			s3.4,0,4.6,0.1c0.7,0,1.4,0.1,2.1,0.4c0.5,0.2,0.9,0.5,1.3,0.8c0.4,0.4,0.7,0.8,0.8,1.3c0.2,0.7,0.4,1.4,0.4,2.1
			c0.1,1.2,0.1,1.5,0.1,4.6s0,3.4-0.1,4.6c0,0.7-0.1,1.4-0.4,2.1c-0.2,0.5-0.5,0.9-0.8,1.3c-0.4,0.4-0.8,0.7-1.3,0.8
			c-0.7,0.2-1.4,0.4-2.1,0.4C26,31.9,25.7,31.9,22.6,31.9z M22.6,16.8c-3.2,0-5.8,2.6-5.8,5.8c0,3.2,2.6,5.8,5.8,5.8
			c3.2,0,5.8-2.6,5.8-5.8C28.4,19.4,25.8,16.8,22.6,16.8z M28.7,15.2c-0.8,0-1.4,0.6-1.4,1.4c0,0.8,0.6,1.4,1.4,1.4
			c0.8,0,1.4-0.6,1.4-1.4C30,15.8,29.4,15.2,28.7,15.2L28.7,15.2z M22.6,26.4c-2.1,0-3.8-1.7-3.8-3.8c0-2.1,1.7-3.8,3.8-3.8
			c2.1,0,3.8,1.7,3.8,3.8C26.4,24.7,24.7,26.4,22.6,26.4z"/>
	</g>
</g>
</svg>
