<?xml version="1.0" encoding="utf-8"?>
<!-- Generator: Adobe Illustrator 27.7.0, SVG Export Plug-In . SVG Version: 6.00 Build 0)  -->
<svg version="1.1" id="Layer_1" xmlns="http://www.w3.org/2000/svg" xmlns:xlink="http://www.w3.org/1999/xlink" x="0px" y="0px"
	 width="45px" height="45px" viewBox="0 0 45 45" style="enable-background:new 0 0 45 45;" xml:space="preserve">
<style type="text/css">
	.st0{clip-path:url(#SVGID_00000076581740212213247580000011079344771944272012_);}
	.st1{fill:#FFFFFF;}
</style>
<g>
	<defs>
		<rect id="SVGID_1_" width="45" height="45"/>
	</defs>
	<clipPath id="SVGID_00000155146344518564244350000010550608174075571869_">
		<use xlink:href="#SVGID_1_"  style="overflow:visible;"/>
	</clipPath>
	<g id="a" style="clip-path:url(#SVGID_00000155146344518564244350000010550608174075571869_);">
		<path class="st1" d="M22.5,45c-3,0-6-0.6-8.8-1.8c-2.7-1.1-5.1-2.8-7.2-4.8c-2.1-2-3.7-4.5-4.8-7.2C0.6,28.5,0,25.5,0,22.5
			c0-3,0.6-6,1.8-8.8c1.1-2.7,2.8-5.1,4.8-7.2c2-2.1,4.5-3.7,7.2-4.8C16.5,0.6,19.5,0,22.5,0c3,0,6,0.6,8.8,1.8
			c2.7,1.1,5.1,2.8,7.2,4.8c2.1,2,3.7,4.5,4.8,7.2c1.2,2.8,1.8,5.7,1.8,8.8c0,3-0.6,6-1.8,8.8c-1.1,2.7-2.8,5.1-4.8,7.2
			c-2,2.1-4.5,3.7-7.2,4.8C28.5,44.4,25.5,45,22.5,45z M26.7,22.6c2.5,0,2.5,2.2,2.5,4v7.2h4.7v-8.2c0-3.1-0.5-4.4-1-5.1
			c-0.9-1.4-2.4-2-4.6-2c-1.8-0.1-3.5,0.9-4.4,2.5v-2.2h-4.5v15H24v-7.4c-0.1-0.9,0.1-1.8,0.5-2.6C24.9,23,25.8,22.5,26.7,22.6
			L26.7,22.6z M11.7,18.8v15h4.7V18.8L11.7,18.8z M14,11.3c-1.5,0-2.7,1.2-2.7,2.7c0,1.5,1.2,2.7,2.7,2.7c1.5,0,2.7-1.2,2.7-2.7
			C16.7,12.5,15.5,11.3,14,11.3L14,11.3z"/>
	</g>
</g>
</svg>
