<?xml version="1.0" encoding="UTF-8"?>
<svg id="Layer_1" data-name="Layer 1" xmlns="http://www.w3.org/2000/svg" width="45" height="45" version="1.1" viewBox="0 0 45 45">
  <path d="M22.5,0C10.1,0,0,10.1,0,22.5s10.1,22.5,22.5,22.5,22.5-10.1,22.5-22.5S34.9,0,22.5,0ZM35.4,31.7c0,.7-.6,1.2-1.2,1.2h-4.9c-.7,0-1.2-.6-1.2-1.2v-9.8c0-1.4-1.1-2.5-2.5-2.5s-2.5,1.1-2.5,2.5v9.8c0,.7-.6,1.2-1.2,1.2h-4.9c-.7,0-1.2-.6-1.2-1.2v-9.2h-.6c-3.1,0-5.5-2.5-5.5-5.5v-3.7c0-.7.6-1.2,1.2-1.2h4.9c.7,0,1.2.6,1.2,1.2v2.5c0,.3.2.5.5.6,1.8-2.6,4.7-4.3,8.1-4.3,5.4,0,9.8,4.4,9.8,9.8v9.8Z" style="fill: #fff; stroke-width: 0px;"/>
</svg>