<?xml version="1.0" encoding="UTF-8"?>
<svg id="Layer_1" data-name="Layer 1" xmlns="http://www.w3.org/2000/svg" width="45" height="45" version="1.1" viewBox="0 0 45 45">
  <path d="M22.5,0C10.1,0,0,10.1,0,22.5s10.1,22.5,22.5,22.5,22.5-10.1,22.5-22.5S34.9,0,22.5,0ZM23.2,30.2h-2.3l-5.4,4.8c-.2.2-.5.3-.8.3s-.3,0-.5-.1c-.4-.2-.7-.6-.7-1.1v-3.9c-1.1,0-2.2-.5-3-1.3-.8-.8-1.3-1.9-1.3-3v-6.6c0-1.2.4-2.2,1.3-3s1.9-1.3,3-1.3,1.2.6,1.2,1.2-.6,1.2-1.2,1.2c-1,0-1.8.8-1.8,1.8v6.6c0,1,.8,1.8,1.8,1.8h1.2c.7,0,1.2.6,1.2,1.2v2.3l3.6-3.3c.2-.2.5-.3.8-.3h2.8c.7,0,1.2.6,1.2,1.2s-.6,1.2-1.2,1.2ZM35.8,22.6c0,1.2-.4,2.2-1.3,3s-1.9,1.2-3,1.3v3.9c0,.5-.3.9-.7,1.1-.2,0-.3.1-.5.1-.3,0-.6-.1-.8-.3l-5.4-4.8h-4.5c-1.1,0-2.2-.4-3-1.3-.8-.8-1.3-1.9-1.3-3v-6.6c0-1.2.4-2.2,1.3-3s1.9-1.3,3-1.3h11.8c1.2,0,2.2.4,3,1.3.8.8,1.3,1.9,1.3,3v6.6Z" style="fill: #fff; stroke-width: 0px;"/>
  <path d="M31.5,14.1h-11.8c-1,0-1.8.8-1.8,1.8v6.6c0,1,.8,1.8,1.8,1.8h4.9c.3,0,.6.1.8.3l3.6,3.3v-2.3c0-.7.6-1.2,1.2-1.2h1.2c1,0,1.8-.8,1.8-1.8v-6.6c0-1-.8-1.8-1.8-1.8Z" style="fill: #fff; stroke-width: 0px;"/>
</svg>