<?xml version="1.0" encoding="utf-8"?>
<!-- Generator: Adobe Illustrator 27.8.1, SVG Export Plug-In . SVG Version: 6.00 Build 0)  -->
<svg version="1.1" id="Layer_1" xmlns="http://www.w3.org/2000/svg" xmlns:xlink="http://www.w3.org/1999/xlink" x="0px" y="0px"
	 width="45px" height="45px" viewBox="0 0 45 45" style="enable-background:new 0 0 45 45;" xml:space="preserve">
<style type="text/css">
	.st0{clip-path:url(#SVGID_00000064313733955199617880000013274717257811390131_);}
	.st1{fill:#FFFFFF;}
</style>
<g>
	<g>
		<defs>
			<rect id="SVGID_1_" width="45" height="45"/>
		</defs>
		<clipPath id="SVGID_00000044881719624722945650000012047180919083754167_">
			<use xlink:href="#SVGID_1_"  style="overflow:visible;"/>
		</clipPath>
		<g style="clip-path:url(#SVGID_00000044881719624722945650000012047180919083754167_);">
			<polygon class="st1" points="22.7,20.6 16.9,12.3 13.8,12.3 21,22.6 21.9,23.9 21.9,23.9 28.1,32.8 31.2,32.8 23.6,21.9 			"/>
			<path class="st1" d="M22.5,0C10.1,0,0,10.1,0,22.5S10.1,45,22.5,45S45,34.9,45,22.5S34.9,0,22.5,0z M27.2,34.3l-6.3-9.1L13,34.3
				h-2l9-10.4l-9-13.1h6.8l5.9,8.6l7.4-8.6h2l-8.6,10h0L34,34.3H27.2z"/>
		</g>
	</g>
</g>
</svg>
