<?xml version="1.0" encoding="utf-8"?>
<!-- Generator: Adobe Illustrator 27.7.0, SVG Export Plug-In . SVG Version: 6.00 Build 0)  -->
<svg version="1.1" id="Layer_1" xmlns="http://www.w3.org/2000/svg" xmlns:xlink="http://www.w3.org/1999/xlink" x="0px" y="0px"
	 width="45px" height="45px" viewBox="0 0 45 45" style="enable-background:new 0 0 45 45;" xml:space="preserve">
<style type="text/css">
	.st0{clip-path:url(#SVGID_00000162313962434038605650000016407796886050723223_);}
	.st1{fill:#FFFFFF;}
</style>
<g>
	<defs>
		<rect id="SVGID_1_" width="45" height="45"/>
	</defs>
	<clipPath id="SVGID_00000137832089643071205670000012433883345963638929_">
		<use xlink:href="#SVGID_1_"  style="overflow:visible;"/>
	</clipPath>
	<g id="a" style="clip-path:url(#SVGID_00000137832089643071205670000012433883345963638929_);">
		<path class="st1" d="M22.5,45c-3,0-6-0.6-8.8-1.8c-2.7-1.1-5.1-2.8-7.2-4.8c-2.1-2-3.7-4.5-4.8-7.2C0.6,28.5,0,25.5,0,22.5
			c0-3,0.6-6,1.8-8.8c1.1-2.7,2.8-5.1,4.8-7.2c2-2.1,4.5-3.7,7.2-4.8C16.5,0.6,19.5,0,22.5,0c3,0,6,0.6,8.8,1.8
			c2.7,1.1,5.1,2.8,7.2,4.8c2.1,2,3.7,4.5,4.8,7.2c1.2,2.8,1.8,5.7,1.8,8.8c0,3-0.6,6-1.8,8.8c-1.1,2.7-2.8,5.1-4.8,7.2
			c-2,2.1-4.5,3.7-7.2,4.8C28.5,44.4,25.5,45,22.5,45z M23,13.5c-0.1,0-5.3,0-8.9,0.3c-1-0.1-1.9,0.4-2.5,1.2
			c-0.6,0.7-1,1.6-1.2,2.5c-0.2,1.4-0.3,2.7-0.3,4.1v2c0,1.4,0.1,2.8,0.3,4.1c0.1,0.9,0.5,1.7,1,2.5c0.7,0.6,1.5,1,2.3,1.1
			c0.2,0,0.3,0.1,0.5,0.1c2,0.2,8.5,0.3,8.6,0.3c0.1,0,5.3,0,8.9-0.3c1,0.1,1.9-0.4,2.5-1.2c0.6-0.7,0.9-1.6,1-2.5
			c0.2-1.4,0.3-2.8,0.3-4.1v-2c0.1-1.4,0-2.8-0.2-4.1c-0.1-0.9-0.5-1.7-1-2.5c-0.6-0.6-1.3-0.9-2.1-1.1c-0.1,0-0.3-0.1-0.4-0.1
			C28.4,13.5,23.1,13.5,23,13.5z M20.4,25.9v-7.1l6.9,3.6L20.4,25.9L20.4,25.9z"/>
	</g>
</g>
</svg>
