<svg width="1920" height="200" viewBox="0 0 1920 200" fill="none" xmlns="http://www.w3.org/2000/svg">
<path d="M0 150 Q 200 120, 400 150 T 800 150 T 1200 150 T 1600 150 T 1920 150 L 1920 200 L 0 200 Z" fill="#F3F4F6"/>
<path d="M50 150 L 50 120 L 70 120 L 70 100 L 90 100 L 90 120 L 110 120 L 110 150 Z" fill="#E5E7EB"/>
<path d="M150 150 L 150 100 L 170 100 L 170 80 L 190 80 L 190 100 L 210 100 L 210 150 Z" fill="#E5E7EB"/>
<path d="M250 150 L 250 130 L 260 130 L 260 120 L 270 120 L 270 110 L 280 110 L 280 120 L 290 120 L 290 130 L 300 130 L 300 150 Z" fill="#D1D5DB"/>
<path d="M350 150 L 350 90 L 370 90 L 370 70 L 390 70 L 390 90 L 410 90 L 410 150 Z" fill="#E5E7EB"/>
<path d="M450 150 L 450 110 L 480 110 L 480 150 Z" fill="#D1D5DB"/>
<path d="M520 150 L 520 125 L 530 125 L 530 115 L 540 115 L 540 125 L 550 125 L 550 150 Z" fill="#E5E7EB"/>
<path d="M600 150 L 600 100 L 610 100 L 610 90 L 620 90 L 620 80 L 630 80 L 630 90 L 640 90 L 640 100 L 650 100 L 650 150 Z" fill="#D1D5DB"/>
<path d="M700 150 L 700 120 L 720 120 L 720 150 Z" fill="#E5E7EB"/>
<path d="M780 150 L 780 130 L 820 130 L 820 150 Z" fill="#D1D5DB"/>
<path d="M880 150 L 880 100 L 900 100 L 900 120 L 920 120 L 920 100 L 940 100 L 940 150 Z" fill="#E5E7EB"/>
<path d="M1000 150 L 1000 90 L 1020 90 L 1020 110 L 1040 110 L 1040 90 L 1060 90 L 1060 150 Z" fill="#D1D5DB"/>
<path d="M1100 150 L 1100 120 L 1120 120 L 1120 100 L 1140 100 L 1140 120 L 1160 120 L 1160 150 Z" fill="#E5E7EB"/>
<path d="M1200 150 L 1200 100 L 1220 100 L 1220 80 L 1240 80 L 1240 100 L 1260 100 L 1260 150 Z" fill="#E5E7EB"/>
<path d="M1300 150 L 1300 130 L 1310 130 L 1310 120 L 1320 120 L 1320 110 L 1330 110 L 1330 120 L 1340 120 L 1340 130 L 1350 130 L 1350 150 Z" fill="#D1D5DB"/>
<path d="M1400 150 L 1400 90 L 1420 90 L 1420 70 L 1440 70 L 1440 90 L 1460 90 L 1460 150 Z" fill="#E5E7EB"/>
<path d="M1500 150 L 1500 110 L 1530 110 L 1530 150 Z" fill="#D1D5DB"/>
<path d="M1570 150 L 1570 125 L 1580 125 L 1580 115 L 1590 115 L 1590 125 L 1600 125 L 1600 150 Z" fill="#E5E7EB"/>
<path d="M1650 150 L 1650 100 L 1660 100 L 1660 90 L 1670 90 L 1670 80 L 1680 80 L 1680 90 L 1690 90 L 1690 100 L 1700 100 L 1700 150 Z" fill="#D1D5DB"/>
<path d="M1750 150 L 1750 120 L 1770 120 L 1770 150 Z" fill="#E5E7EB"/>
<path d="M1830 150 L 1830 130 L 1870 130 L 1870 150 Z" fill="#D1D5DB"/>
</svg>
