<?xml version="1.0" encoding="UTF-8"?>
<svg id="Layer_2" data-name="Layer 2" xmlns="http://www.w3.org/2000/svg" width="90.6" height="90.6" xmlns:xlink="http://www.w3.org/1999/xlink" version="1.1" viewBox="0 0 90.6 90.6">
  <defs>
    <clipPath id="clippath">
      <rect x="0" y="0" width="90.6" height="90.6" style="fill: none; stroke-width: 0px;"/>
    </clipPath>
  </defs>
  <g id="Layer_1-2" data-name="Layer 1-2">
    <g>
      <path d="M45.3,90.6C20.3,90.6,0,70.3,0,45.3S20.3,0,45.3,0s45.3,20.3,45.3,45.3-20.3,45.3-45.3,45.3ZM45.3.7C20.7.7.7,20.7.7,45.3s20,44.5,44.6,44.5,44.6-20,44.6-44.6S69.9.7,45.3.7Z" style="fill: #fff; stroke-width: 0px;"/>
      <g style="clip-path: url(#clippath);">
        <g>
          <g>
            <path d="M41.9,23.4h.1c0,.4,0,1,.3,1.3,0-.2,0-.3.1-.4h0c0,.1,0,.1,0,.3.2.4.3,2.2.3,2.9h0s0,0,0,0c-.2-.2-.1-.6-.3-.8h0c-.2.4,0,1.2,0,1.4h.1c.2-.3.4-.6.7-.7.3,0,.8.1,1,0,.1-.1.1-.9.3-1.1.8-1.1,1.7.2,2.3.3.2-.2.6-.5,1-.4.3,0,.6.5.9.4.6,0,.8-.9,1.3-1.1h.4c.5,0,.8,0,1-.4.2-.2,0-.5.2-.8.3-.3.6-.6.9-.9.1-.2,0-.4,0-.7,0-.1,0-.2.1-.3.6-.3,1.4-.4,1.8.2.3.4,0,.7.8.7,0,0,.3,0,.5,0,.4.1.4.7.7.9.2.1.7,0,.8,0,.2,0,.3-.2.3-.5-.2-.3,0-.8.1-1,.1-.1.4-.1.5-.3.2-.2,0-.6,0-.9.2-.5.7-.4.7-1.2-.1-.1-.2-.3-.3-.4-.2-.1-.5-.1-.7-.3-.2-.2,0-.5-.1-.9,0-.2-.4-.3-.5-.5-.1-.2-.2-.8-.2-1-.2-.1-.3-.2-.7-.2-.2.4-.5.9-1,1-.5.1-.9-.3-1.2-.1-.5.2-.4.7-1.1.7-.2-.2-.5-.4-.5-.7s.3-.7,0-1c-.2-.7-.7-.4-1.3-.3-.2-.2-.5-.7-.9-.7-.3.4-.5.7-1.2.7,0,0-.2-.1-.3-.2-.1-.2,0-.3-.3-.4,0,0,0,0-.1,0-.2.4-.5.8-.8,1-.2.1-.5,0-.7.2-.2.2-.4.5-.6.7-.1,0-.3,0-.5.2-.2.2-.2.6-.5.8-.3.2-1,.5-1.2,0-.3-.4.2-.9,0-1.3,0,0-.2,0-.4,0-.3.3-.9.8-1.5.8-.3-.3-.8-.6-1.2-.8-.5-.1-1,.3-1.4.5-.2,0-.3,0-.5,0-.3,0-.5,0-.8,0,0,0,0,0,0-.2-.2-.2,0-.6,0-.9h0c-.2-.1-.5,0-.8,0-.2,0-.5,0-.7,0-.6-.2-.4-.3-1.1-.1-.2.2-.3.2-.3.6.5.6,0,1-.3,1.4,0,.2,0,.5,0,.8-.1.5-.6.9-1.2.9-.2-.2-.5-.4-.8-.4-.1.1-.3.1-.5.2-.3.2-.5.4-.9.4-.1-.2,0-.6-.2-.9,0,0-.1,0-.2,0-.2.2-.5.2-.7.4,0,.2.6,1.1.7,1.2.3.3.7-.2,1.1,0,.6.1,1,.7,1,1.5-.2.2-.3.5-.6.7-.4.2-1.1.2-1.5,0-.1,0-.2-.2-.3-.3-.4-.2-.8-.2-1.1-.5-.3-.2,0-.5-.6-.5-.3.2-.6.5-1,.5-.3-.2-.6-.4-1-.3,0,.3-.2.5-.2.9.1.1.2.4.3.5.1,0,.2,0,.3,0,.1,1.1.4,2.3.4,3.4,0,0,0,0,.2,0,.2-.2.4-.4.9-.4.2.2.4.3.8.3.2-.2.6-.6.9-.7.2,0,.5,0,.7-.1.3-.6,0-1,0-1.7h0s0,0,0,0c0,.2,0,.6.4.6.1-.2.1-.5.1-.9,0,0,0,0,.1,0,0,0,.2,0,.4,0,0,.1,0,.1.3.2.2-.1.3,0,.3.2.2.3,0,.7,0,1,0,.4,0,1,.2,1.3.2.1.5.2.7.4.4.3.4,1,1.1.6.2-.1.3-.1.4-.3.1-.2,0-.6-.1-.8,0-.3,0-.6,0-.9-.1-.4-.3-.9-.2-1.4h.2c0,.1,0,0,.1,0,.2-.2,0-1.2,0-1.6h0c.2.2,0,.6.2.8,0,.1.3.1.4.3.1.3,0,.7.2.9,0-.2,0-.4,0-.5,0,0,0,0,.2,0,0,.1,0,.1,0,.3.2.3.2,1.8.3,2.2h0c0,0,.2,0,.3,0v-.2c-.2-.3-.3-1.8-.3-2.2.2,0,.3-.2.4-.3,0,0,0,0,.1,0,.1.5,0,1.1.2,1.7,0,.2.1.7,0,.9,0,.3-.2.6-.2,1,0,0,0,0,.2,0,0-.1.3-.1.4-.3s0-.3.2-.4c.3-.4.8-.3,1.2-.2,0-.1,0-.1,0-.3-.2-.1-.4,0-.5-.4-.1-.2-.1-1.2,0-1.4,0,0,0,0,.1,0,0,.1,0,.3.1.4.1,0,.2-.1.3-.1,0,0,.2.2.2.2.1-.2,0-.5.1-.7,0,0,0,0,.1,0,0,.2,0,.5.2.5,0,0,.2,0,.3,0,0,0,.1.2.2.3,0,0,.2,0,.2,0,0,0,0,0,0,.1.1.2.2,1.3.2,1.6,0,.1-.1.2,0,.4,0,.1.2.3.2.4,0,.2,0,.3.1.4,0,0,0,0,0,0h0c.2-.4,0-1.1,0-1.4,0-1.2-.2-2.3-.3-3.5" style="fill: #fff; fill-rule: evenodd; stroke-width: 0px;"/>
            <path d="M46.9,30.1h.1c0-.1,0-.2,0-.4,0,0,0,0,.1,0,.2.2.2.7.3,1h0c0-.3,0-.6,0-.9h0c0,.1,0,.1,0,.3,0,.1,0,.6.1.8.2.1.6.2.6.5.3.5,0,1.9.3,2.4,0,0,0,0,.1,0,0-.1,0-.4,0-.6-.1-.2,0-.5,0-.8-.1-.6-.2-1.3-.2-2,0,0,0,0,.2,0,0,0,0,0,0,.1.1.2,0,.5,0,.8.2.8.3,2,.4,2.9,0,0,0,0,.2,0,0,0,0,0,0,0,0-.7,0-1.5-.2-2.1,0-.3,0-.6,0-.9,0-.3-.2-.8,0-1.1,0,0,0,0,0,0,.3.3.3,2.3.4,2.9,0,.4,0,1,.3,1.1,0,0,0,0,0,0,.1-.2.1-.7,0-1-.2-.7-.2-1.5-.2-2.3,0,0,0,0,0,0,0,0,0,0,0,0,.2.4.2,2.1.4,2.6,0,.4,0,.7.3.8.5.4.7,0,.8-.4.1-.2.3-.2.5-.4.2,0,.5,0,.7,0,0,0,0,0,0-.1.1-.2,0-.9,0-1.2v-.7c-.2-.7-.4-1.7-.3-2.5h.1c.2.4,0,.9.2,1.2.3,1.2.1,2.7.5,3.8,0,0,.1,0,.2,0,0,0,0,0,0,0,.1-1.2-.2-2.3-.3-3.5,0,0,0,0,.2,0,0,0,0,0,0,0,0,.9.2,2,.4,2.9,0,0,0,0,.2,0h0c.1-.3,0-.7,0-.8,0-.7-.1-1.1-.1-1.8h0s0,0,0,0c0,0,0,0,0,.2.3.5,0,1.7.4,2.2,0,0,0,0,.2,0,0,0,0,0,0,0,.2-1.2-.2-2.5-.3-3.8,0,0,0,0,0,0,0,0,0,0,0,0,.2.3,0,.9.2,1.3.2.9.3,1.9.5,2.7.1,0,.2.1.4.1h0c0-.3,0-.9,0-1.3,0-1.1-.3-2.1-.3-3.3h0s0,0,0,0c.3.4,0,1.3.2,1.9.2.7.2,1.7.4,2.4,0,0,.1,0,.3,0,0-.2,0-.5,0-.8,0-.1,0-.4,0-.6,0,0,0,0,.2,0,0,0,0,0,0,.3-.2.2,0,1.1.1,1.4.2.1.2.3.4.3,0-.6,0-1.3-.1-1.9,0-.5,0-.9,0-1.4,0-.3-.2-.7,0-1.1h.1c.2.4,0,.8.1,1.2.2.8.2,1.8.4,2.6,0,.3,0,1,.1,1.2,0,.2.2.4.5.4,0-.2,0-.4,0-.7-.1-.2,0-.5,0-.8-.2-.7-.5-2.5-.4-3.3h.1c.2.4,0,.8.1,1.1.2.8.2,1.9.4,2.7,0,.5-.1,1,.4,1,0,0,0,0,0,0,0-.2,0-.5,0-.8-.1-.2,0-.5,0-.8-.2-.7-.3-1.5-.3-2.4,0,0,0,0,0,0h0c.2.3,0,.7.1,1,.2.7.2,1.5.3,2.1,0,0,.1,0,.2,0,.1,0,0,0,.1-.1.2-.3-.2-1.8,0-2.3h.1c0,0,0,0,0,.1.4.6,0,1.7.4,2.2,0,0,0,0,0-.2-.2-.2,0-.7,0-1,0-.5,0-1-.1-1.4-.1-.6-.2-1.2-.2-1.8,0,0,0,0,0,0h0c0,.1,0,.1,0,.3.2.3,0,.7.1,1.1.3,1.2.1,2.8.5,3.9,0,0,0,0,0,0,0-.2,0-.6,0-.9-.2-.3,0-.7,0-1-.2-.9-.3-2-.3-3,0,0,0,0,0,0h0c0,.1,0,.1,0,.3.2.3,0,.9.1,1.3.2.9.2,2,.5,2.9h0s0,0,0,0v-.6c-.1-.2,0-.7,0-1,0,0,0,0,.1,0h0s0,0,0,0c0,0,0,0,0,.2.3.6-.2,1.8.7,1.9,0,0,0,0,0-.1.1-.2,0-1.3,0-1.7,0,0,0,0,.2,0,0,0,0,0,0,.1.2.3.2,1.3.3,1.7,0,0,0,0,.2,0,0,0,0,0,0,0,0,0,0-.2,0-.4-.2-.2,0-.5-.1-.8-.1-.6-.2-1.3-.2-2h0c0,0,0,0,.1,0,0,.6.2,1.2.3,1.9,0,0,0,0,.2,0,0-.2,0-.3,0-.6-.2-.2-.1-.8,0-1,0,0,0,0,.1,0,0,.5.1,1.1.2,1.6.2,0,.4,0,.6.1.3,0,.5.3,1,.3.2-.1.4-.2.5-.4.2-.3.2-.7.4-.9.2-.2.4,0,.4-.5-.3-.3-.9-.9-.6-1.5.1-.3.3-.6.4-.9,0,0,0,0-.3,0,0,0-.3,0-.4,0-.1-.2-.2-.3-.2-.7.1-.2.1-.4.2-.6,0-.1.3-.3.4-.5.1-.3-.1-.6,0-.9.3-.5,1.2-.8,1.3-1.3-.2-.1-.4-.4-.4-.7.2-.2.3-.4.4-.7,0,0,0,0-.2-.1,0,0-.2,0-.4,0-.2.1-.3.1-.3.5,0,.1,0,.4,0,.5-.2.3-.6.3-.6.6,0,.1,0,.8,0,1-.1,0-.2.2-.3.3-.8,0-1.3-.2-1.6-.8,0-.2-.2-.5,0-.7.1-.4.5-.6.8-.9,0-.4-.2-.8-.6-.8-.1,0-.4,0-.5,0-.2.4-.3.4-.6.6-.3.2-.6.9-1.2.5-.4-.3-.1-.6-.2-1.1,0-.2-.2-.3-.2-.6,0-.1.1-.3.2-.4.2-.3.6-.3.7-.8-.2-.1-.5-.3-.6-.5-.2-.3-.2-.6-.6-.6,0,0,0,0,0,0-.1.3-.2.6-.3,1,0,.3,0,.6,0,.9,0,.2-.3.5-.4.7-.1.5,0,.9-.2,1.3-.3.6-1.2.4-1.4.9-.2.3,0,.5-.4.7-.3.3-.8,0-1.2,0-.3,0-1,.4-1.3.5-.2.1-.3.4-.6.4-.3.2-.7-.4-1.1-.3-.5.1-.2.7-1,.7-.2-.2-1-.5-1.3-.5-.3.5-.4,1-1,1.2-.2,0-.4,0-.5,0-.2,0-.6.2-.8,0-.2,0-.4-.3-.5-.5-.6,0-.7.3-1.2.2-.2-.2-.3-.8-.6-.9,0,0-.2,0-.3,0-.3.3-.8.4-.8,1,.1,0,.2,0,.3.2.2.3,0,1,.3,1.3,0-.4,0-.9,0-1.2h.2s0,0,0,0c0,.2,0,.5.1.7" style="fill: #fff; fill-rule: evenodd; stroke-width: 0px;"/>
            <path d="M22.2,40.2h.2c.8-1.2,1.7-.2,2.8,0,0-.1.1-.1.1-.4-.1,0-.2-.1-.3-.2-.2-.3,0-.8-.2-1.2-.1-.6-.4-2.2-.2-2.7h0c0,0,0,0,0,.2.2.3,0,.8.1,1.2.2.8.2,1.7.3,2.4h.1c.2-.2.6-.4.7-.7,0,0,0-.6-.1-.8-.1-.5,0-.8,0-1.3,0-.4-.2-.8,0-1.2,0,0,0,0,.2,0,0,0,0,0,0,0,.2.3,0,.8.2,1.3.1.7.2,1.4.2,2.1.1,0,.1,0,.3,0,0,0,0,0,0-.1.1-.2,0-.6,0-.8,0-.7-.2-1.3-.2-2.1,0,0,0,0,0,0,0,0,.1,0,.2,0,0,.8.1,1.7.3,2.4.1.5,0,.9.2,1.3,0,0,0,0,.1,0,0-.4,0-1,0-1.3-.1-.7,0-1.2-.1-1.8-.1-.6-.2-1.4-.2-2.1,0,0,0,0,.2,0,0,0,0,0,0,0,.1,1,.2,2.2.5,3.2.1.6,0,1.2.2,1.7h0v-.7c-.2-.3-.2-1.4-.2-1.8.4-.2.4-.4.4-1,0,0,0,0,0,0h0c0,0,0,0,0,.3.1.2,0,.4,0,.7.1.6.1,1.3.3,1.9,0,.3-.1.7,0,.7.2.2.6.1.9,0,0-.1,0-.2,0-.4-.1-.2,0-.5,0-.7-.1-.6-.4-1.5-.2-2.2,0,0,0,0,0,0,0,0,0,0,0,0,.2.2.1.4.2.8,0,.3,0,.9,0,1.2,0,.4,0,1,.2,1.4,0,0,.1,0,.2,0,0-.2,0-.4,0-.6-.2-.4,0-1-.2-1.5-.2-.8-.2-1.9-.2-3h.1c.2.4.1,1.3.2,1.7,0,.3.1.8.2,1.2v.8c.1.4.2,1,.2,1.5,0,0,0,0,.2.1h0c.1-.2,0-.7,0-.9-.1-.8-.2-1.5-.3-2.3,0-.3-.2-.7,0-1,0,0,0,0,.1,0,0,0,0,0,0,.1.1.2,0,.5,0,.8.2.8,0,2.3.5,3,0,0,0,0,.1,0,0-.4,0-1,0-1.3v-.6c-.2-.7-.4-2.1-.2-2.9h.1c0,.1.1.4.2.5,0,0,.2,0,.2.1,0,.1.1.3.2.5.3.1.5.2.9.3,0-.2,0-.4,0-.6h0c0,0,0,0,.1,0,.1.7.2,1.5.3,2.2,0,.4,0,.9.1,1.2,0-1.3-.3-2.3-.3-3.6,0,0,0,0,.2,0h0c.2.2,0,.6.1.9.2.6.1,1.5.4,2.1.1,0,.1,0,.3,0,0,0,0,0,0,.1.3.4,0,1.1.2,1.7,0,.2.1.5.2.7h.1c0-.1,0-.4,0-.6-.2-.2-.1-1.3-.1-1.7,0,0,0,0,.2,0,0,0,0,0,0,.1.2.4.1,1.7.4,2.2,0,0,0,0,.1,0v-1.2c-.1-.2,0-.5,0-.7-.2-.8-.2-1.6-.2-2.5,0,0,0,0,.1,0,.2.3,0,.7.1,1.1.2,1,.2,2.2.5,3.2,0,0,.1,0,.3,0,0,0,0,0,0,0,.4-.8,0-2.3,0-3.3,0,0,0,0,.2,0h0c.2.4.2,1.4.3,1.8.1.5-.2,1,.4,1,0,0,0,0,.1-.2.2-.3,0-1,0-1.3h.2c.2.4,0,1.2.4,1.3.2.1.5,0,.8.1.4.1.6.4,1.2.5.8-.8,1.7-.5,2.4.2.2,0,.4-.2.5-.2.5-.2,1.1,0,1.7,0,0-.1.2-.2.3-.4,0-.2,0-.6,0-.8.1,0,.3-.2.4-.3.3,0,.5-.2.8-.3,0-.1.2-.3.3-.4,0-.6-.1-.9-.1-1.5.4-.3.4-.4,1.2-.4,0-.1,0-.3,0-.5-.2-.2-.4-.4-.5-.6,0,0-.1,0-.2,0,0-.1-.2-.3-.2-.4-.3-.2-.7,0-.9-.4-.2-.3,0-.9-.3-1.2-.2-.2-.9-.2-1.2-.2,0-.2-.2-.3-.3-.5,0-.2-.1-.4-.2-.6,0,0-.1,0-.2,0-.3.3-.7.5-.9.8h-.4c-.3-.3-.5-.6-.8-.9,0,0-.1,0-.2,0-.1.1-.2.3-.3.5,0,.1-.3.2-.4.3-1.3,0-.5-1-1.9-1-.2.2-.5.6-.9.6-.3-.2-.9-.2-1.1-.5,0-.1,0-.3-.1-.5-.1-.2-.5-.2-.6-.5-.2-.4-.3-.9-.7-1.2-.3-.2-.8-.5-1.2-.6-.3-.1-.7,0-1-.2-.3-.1-.3-.6-.7-.6-.3.3-.9,1.1-1.2,1.2-.5.1-.7-.3-.9-.4-.3-.2-1.4-.6-2-.5s-.7,1-1.2,1.2c-.3.1-1-.1-1.3,0-.2.1-1,.8-1.4.5-.2-.1-.2-.4-.4-.7-.2-.3-.6-.5-.8-.9,0-.3,0-.6,0-.9,0-.2-.3-.3-.4-.5,0-.2,0-.4-.2-.5,0,0-.2,0-.3,0,0,.1,0,.2,0,.4.2.2.4.4.4.8-.1.1-.1.2-.3.3-.3.2-.7,0-.9.4-.1.1,0,.2,0,.5.5.3.4.9.4,1.5.1,0,.1,0,.3,0,.1,0,.2,0,.3,0,0,0,0,.2.1.2,0,.6-.3.6-.3,1.1.4.2.7.6.7,1.1,0,0,0,.2-.2.2-.1,0-.4,0-.5,0,0,0,0,.1,0,.3.3.2.4.6.8.7,0-.2,0-.2.2-.2.3.5.1,1.2.3,2,.2.8.3,2.2.3,3.1,0,0,0,0-.2,0,0,0,0,0,0-.1-.1-.2,0-.4,0-.7-.2-.8-.2-1.9-.4-2.6,0-.1,0-.3,0-.4,0,1.6.3,2.9.3,4.5,0,0,0,0,0,0-.1,0-.2,0-.3,0,0,0,0,.2,0,.3,0,0,0,0,0,.1" style="fill: #fff; fill-rule: evenodd; stroke-width: 0px;"/>
            <path d="M53.2,40.3c0,0,0,0,.1,0,.2.3,0,.9.2,1.3.3,1.2.1,2.9.5,3.9,0,0,0,0,.2,0,0,0,0,0,0,0,0-.7,0-1.6-.2-2.2v-.5c0-.4-.2-1.2,0-1.5,0,0,0,0,0,0,.2.2,0,.7.2,1.1.2.8.2,1.8.4,2.5,0,0,0,0,.2,0,0-.2,0-.6,0-.8-.1-.2-.2-1.3-.2-1.7h0c0,0,0,0,.1,0,0,.4.2,2.1.4,2.2,0,0,0,0,.1,0,.1-.5,0-1.1,0-1.8h0c0,0,0,0,.1,0,0,.5.1,1.2.2,1.7,0,0,.1,0,.2,0,0,0,0,0,0,0v-.7c-.3-.4,0-1.2-.2-1.8-.1-.6-.2-1.2-.2-1.8,0,0,0,0,.2,0h0c.2.4,0,1.3.2,1.8.1.5.1,1.3.3,1.9v.5c0,.3.2.7.3,1,0,.2,0,.5,0,.7.1,0,.2.1.4.1.2-.2.1-.7.1-1.1-.1-.2,0-.6,0-.9-.2-.8-.4-2.5-.4-3.3h0s0,0,0,0c.2.2,0,.5.1.9.2.8.2,1.8.4,2.6.1.5,0,1.4.5,1.4,0,0,0,0,0,0,0-.6,0-1.4-.1-1.9v-.7c0-.3-.2-.9,0-1.3,0,0,0,0,.1,0,0,1,.2,2.3.4,3.3,0,.3,0,.8.3.9,0,0,0,0,.2,0,0-.2,0-.6,0-.9-.2-.3-.2-1.5-.2-1.8h.2c0,1.1.2,2.2.5,3.2.2.1.2.2.5.2,0,0,0,0,0-.1.2-.2,0-.8,0-1.1,0-1-.2-1.8-.3-2.9h0c0,0,0,0,0,0,.2.2,0,.6.1.9.2.6.1,1.5.3,2.1,0,.4,0,1,.3,1.2,0,0,0,0,.2,0,0,0,0,0,0,0,.2-.2,0-.7,0-1.1,0-.8-.2-1.7-.2-2.5,0,0,0,0,.1,0,.2.3,0,.7.1,1.1.1.6.2,1.4.4,2h.2c0-.2,0-.6,0-.9-.2-.2-.1-.8,0-1.1h.1s0,0,0,.1c.2.3.2,1.6.4,2,0,0,0,0,.1,0h0c.2-.3,0-1.2,0-1.6,0,0,0,0,.2,0h0c.2.3.3,1.5.3,1.8,0,0,0,0,.2,0,0-.2,0-.5,0-.8-.1-.2,0-.7,0-.9h.2s0,0,0,0c0,.4.2,2.1.4,2.2,0,0,0,0,0,0h0c.2-.3,0-1,0-1.4,0-.4,0-.9,0-1.3-.1-.5-.2-1.2-.1-1.7h0s0,0,0,0c0,.8.2,1.7.3,2.4.1.6,0,1.1.2,1.6,0,0,.1,0,.2,0,0-.1.1-.1.1-.3.1-.2-.1-1.7-.1-2.2,0,0,0,0,0,0,0,0,0,0,0,0,.2.3.3,1.8.4,2.3,0,0,0,0,.2,0,0-.2,0-.3,0-.6-.2-.3,0-.9,0-1.3,0,0,0,0,.1,0,.3.3.2,1.6.4,2h.1c0-.5,0-1.1,0-1.7,0,0,0,0,.2,0,0,.3.2.7.3,1h0c0-.2,0-.2.1-.2h0s0,0,0,0c0,0,0,0,.1,0,0,.6.2,1.3.1,1.9-.2,0-.2,0-.3.3.2.2.2.5.4.5.4.3.5-.4.4-.8-.2-1-.3-2.2-.4-3.4,0,0,0,0,.1,0,.2.3,0,.8.2,1.2.2.9.2,2,.4,2.9.1,0,.2,0,.4,0,.2,0,.4,0,.6,0,.3,0,.6-.3.9-.5.5-.2,1.2.1,1.6.2.4-.1.2-.5.7-.5.3.3.8.6,1.3.6,0,0,0,0,0-.1.2-.3,0-1.1.2-1.5.3-.3.7-.7,1-1,.2-.4,0-.9,0-1.4,0,0,0,0,.1,0,0,0,0,0,.2,0,.2.2.5.6.8.7,0,0,0,0,.1-.1.1-.2.4-1.4.3-1.7-.1-.3-.5-.5-.6-.8,0-.3.2-.6,0-.9-.4-.2-1.1-.3-1.1-.9.4-.3.7-.6.7-1.3-.2-.3-.6-.5-.7-.9-.1-.6.4-.9,0-1.4-.2-.3-1.1-.3-1.5-.4-.2-.3-.4-.6-.5-1,0-.2,0-.5,0-.8,0-.3-.2-.5-.1-.8.2-.1.6-.3.8-.5,0,0,0-.2.2-.3,0-.5,0-1-.4-1.2-.2-.1-.6,0-.8,0-.2-.4-.1-.6-.2-1.1-.3-.1-.7-.2-.7-.7,0-.1,0-.5,0-.7,0-.2-.1-.4-.2-.6,0,0-.1,0-.3,0-.3.2-.9.2-1,.6-.2.3.2.7.2.9,0,.3,0,.5,0,.9.2.1.3.3.4.4.2.1.5.1.7.3.1,0,.2.3.3.5,0,.9-.2.9-.5,1.3-.1.2-.1.4-.2.5-.2.2-.3.2-.3.6.2.2.3.5.5.8.2.3.6.6.7,1,.1.5-.3.9-.8.8-.1,0-.3-.1-.4-.1-.7.8-.7.7-1.7.4-.2,0-.4,0-.6,0-.3-.1-.2-.5-.6-.5-.6.4-2.2,0-2.3.8-.2.4.3.7,0,1-.7.5-1.2-.6-1.4-.5-.1,0,0,0,0,.1-.1.2,0,.6,0,.8,0,.3-.4.5-.6.7-.6,0-.8-.2-1.1-.3-.6-.2-1.1.1-1.2-.4,0,0,0-.1,0-.3,0,0,0-.2.2-.4.2-.2.5-.2.5-.5-.3-.2-.9-.3-1.3-.4,0-.1-.2-.2-.2-.4,0-.1,0-.3,0-.4,0,0-.9-.7-1.1-.7,0,0,0,0-.2,0l-.3.3c0,.2-.1.3-.2.5,0,0-.2.1-.3.2-.5,0-.7-.1-1-.2-.4,0-.7,0-1,.1-.2,0-.4,0-.5,0-.1-.2-.2-.2-.2-.6.1-.2,0-.3,0-.5,0,0-.1,0-.2,0-.6.2-.8.7-1.6.6,0-.2-.2-.6-.4-.7-.1,0-.2,0-.4,0-.2.3-.3.8-.5.9-.4.3-.9-.1-1.3-.1-.2.4-.2.8-.4,1.2,0,0-.1,0-.2.1-.5,0-.8-.2-1.2-.1,0,.1-.1.1-.1.4,0,0,.1,0,.2,0,.2-.2.3,0,.4.1,0,0,.2,0,.3,0,0,.2.1.7.3.8,0,0,.2,0,.3.2.2.3.1,1.2.3,1.6.4,0,.8,0,1.2-.1,0,0,0,0,0-.1.1-.2,0-.5,0-.7,0-.5-.1-1.1-.1-1.7h0c0,0,0,0,0,0h.1c0,.5,0,.9.1,1.2,0,.5,0,.9.1,1.3,0,.2,0,.4.2.5h0s0,0,0,0c.1,0,0-.3,0-.5-.2-.2-.2-1.6-.3-2,0-.2,0-.5.1-.5h0s0,0,0,0c.1.2,0,.4,0,.7,0,.7.2,1.4.3,2.2.2.1.6.2.9.3,0-.2,0-.5,0-.8-.1-.2,0-.5,0-.8-.2-.7-.2-1.7-.2-2.5h0s0,0,0,0c.3.3.2,1.4.3,1.9.1.5,0,1.1.2,1.7,0,.4.1,1,.2,1.4v.6c.1.7.2,1.4.3,2.1.1,0,.1.1.4.1,0-.1.1-.1.1-.4-.2-.3,0-1-.2-1.5-.1-.5,0-1-.2-1.6-.1-.6-.3-1.5-.2-2.2" style="fill: #fff; fill-rule: evenodd; stroke-width: 0px;"/>
            <path d="M43.7,50.9h.1c0-.7,0-1.5-.2-2.2,0-.3-.1-.7,0-.8.3,0,.1.3.2.7.1.6,0,2.1.5,2.4.1,0,.2,0,.4,0,0-.3,0-.5-.1-.8,0-.3.2-.5.1-.7,0,0-.1-.2-.1-.3,0-.4,0-.8,0-1.2,0,0,.3,0,.4-.2.2-.3.1-.7.7-.8.6-.4,1,.6,1.7.6.6-.4,2.2-.5,2.5-1.2.2-.3-.2-.7,0-1.1.2-.5.8-.6.8-1.2-.2-.1-.3-.4-.5-.5-.2-.1-.4-.2-.5-.4-.2-.3-.3-1-.8-1,0,0,0,0,0,0-.2.4-.6,1-1.3,1-.2-.3-.2-.8-.3-1.2-.3-.2-.5,0-.8-.1-.3,0-.3-.4-.6-.5-.2.3-.3.5-.5.7-.4,0-1.2.2-1.6.1-.2,0-.3-.2-.6-.2-.2.2-.4.3-.8.3-.2-.2-.5-.5-.8-.6-.1.2-.6.7-.7.8-.5.3-1.1-.4-1.3-.7-.3,0-.5,0-.8.1-.6.2-1.2,0-1.2.8.2.1.5.4.6.6v.7c0,.2.2.4.1.7-.1.4-.5.3-.5,1.1.2.1.7.3.8.6.3.3,0,.9-.1,1.3.1,0,.2.1.4.1.1-.1.3,0,.5,0,.3.6.2.8,0,1.4-.4.2-.8.5-1.4.5-.1-.1-.4-.4-.5-.4-.3,0-.7.2-1,0,0,0-.4-.5-.5-.6-.2,0-.3,0-.5,0-.1.2-.2.3-.2.7.2.2.4.4.5.6,0,0,0,0,0,0,0-.1,0-.2.2-.3h0s0,0,0,0c.3,0,.8.3.9.6.2.3,0,.8.1,1.2,0,.4.1,1,.2,1.4,0,.3,0,.7.2.8,0,0,0,0,.1,0v-.5c-.2-.3,0-1-.1-1.4,0-.2-.1-.6-.2-.8,0-.2,0-.6,0-.7,0-.1,0,0,0-.2,0,0,0,0,0,0,.1,0,.1.2.1.5.2.3.3,1.9.4,2.4h0v-.3c0-.1-.2-1.2-.1-1.5l.4-.4c.1-.3,0-.7.5-.7,0,0,0,0,0,.1.3.5.1,1.9.4,2.4,0-.6-.1-1,0-1.6,0,0,.1,0,.2,0h0c0,1,.3,2,.4,3h0c0,0,0,0,0,0,0,0,0-.2,0-.4-.2-.2-.2-1.7-.2-1.9,0,0,.1,0,.2,0,0,.2.1.5.2.6,0-.3,0-.6.3-.6,0,0,0,0,0,.1.1.2.2,1.1.2,1.3h.1c.3-.5-.3-1.5,0-2,.1,0,.2,0,.3-.2.2-.3-.1-1.3,0-1.7,0,0,.1,0,.2,0h0c.1,1.2.2,2.4.5,3.4h0v-.6c-.2-.3,0-.8,0-1.1-.2-.7-.4-1.9-.2-2.7.3-.1.3-.2.5-.5h0s0,0,0,0c.2.3,0,.8.2,1.2.2.7.1,1.5.3,2.2,0,.5,0,1.2.3,1.4h0s0,0,0,0c.2-.2.1-.8,0-1.1-.2-.8-.4-2.3-.4-3.2,0,0,0,0,.2,0,.3.6.2,2,.4,2.8,0,.4,0,1.1.3,1.2h0c.1-.3,0-1.3,0-1.5,0-.4,0-.8,0-1.2-.1-.6-.3-1.7-.1-2.2h0c0,0,0,0,0,.2.2.2,0,.6.1,1,.2.7.2,1.5.3,2.2" style="fill: #fff; fill-rule: evenodd; stroke-width: 0px;"/>
            <path d="M51.4,53.6c0-.2,0-.5,0-.7,0,0,0,0,0,0,.2.3,0,.9.3,1.2h0c0-.1,0-.2.1-.3h0c0,0,0,0,0,.3.2.4,0,1,.1,1.6.2,1,.2,2.2.4,3.1,0,.3,0,.5,0,.8.2.1.3.1.6,0,.2-1.3-.2-2.9-.3-4.2h.1c0,.9.1,2,.3,2.8s0,1.8.7,1.9c0,0,0,0,.1,0h0c-.3-.4,0-.9-.2-1.4-.2-.8-.4-2.3-.3-3.1h.1c0,.6.2,1.2.3,1.7v.5c0,.5.1,1,.2,1.4h.1c.1-1-.2-2-.2-3h0s0,0,0,0c.2.2,0,.6.1.9.2.7.2,1.5.3,2.2,0,0,.2,0,.4,0,0,0,.1,0,.2-.2.3-.4-.3-.9-.4-1.5,0,0,0-.2.2-.2.2-.2.5-.2.5-.6.1-.2-.1-1.3-.1-1.7,0,0,0,0,0,0,0,0,0,0,0,0,.1.2.2,1.7.3,2,0,0,.1,0,.2,0,0-.1,0-.4,0-.6-.1-.2,0-.6,0-.8,0,0,.1,0,.2,0,0,.1,0,.5.1.6,0-.5,0-1.2,0-1.6,0,0,0,0,0,0,.2.3,0,.8.1,1.2,0,.4,0,.8.1,1.2.2.7.3,1.5.3,2.4.1,0,.2,0,.4,0,.1-.2.3-.3.3-.5,0-.4-.1-1.2-.2-1.5,0-.3,0-.6,0-.9-.1-.6-.2-1.5-.2-2.2h.1c.1.3,0,.6,0,.8.2.8,0,1.7.3,2.5.1.5-.1,1.3.5,1.3,0,0,0,0,.1-.2.1-.2,0-.6,0-.8,0-.3,0-.6,0-.9,0-.4-.2-1-.1-1.5h.1s0,0,0,0c0,1.1.2,3.4.8,4,0,0,0,0,0,0,.1,0,0-.5,0-.7-.1-.2-.3-2.2-.2-2.5h0c0,.1,0,.1,0,.3.1.2,0,.5,0,.8.2.9,0,2.3.7,2.8,0,0,0,0,.1,0,0-1.2-.2-2-.3-3.1,0,0,0,0,.2,0h0c.2.4,0,1,.2,1.5.2.8.3,1.7.3,2.5.4.3.6.2.6-.5-.2-.3,0-.9-.1-1.2-.1-.6,0-1.3-.2-2-.1-.5-.3-1.3-.1-1.9,0,0,0,0,.1,0,.2,1.7.4,3.3.6,5,0,0,0,0,.3,0,0,0,0,0,.1-.2.1-.2,0-.5,0-.8,0-.7-.2-1.5-.1-2.1h.1s0,0,0,0c.1.9.2,1.8.4,2.7h0c0,0,0,0,0,0,.1,0,0-.2,0-.5-.2-.2-.2-1,0-1.2h.2c.2.5.1,1.3.4,1.7,0-.5-.2-.8,0-1.2,0,0,0,0,.2,0,0,.3,0,.5.5.5.1-.1.2,0,.4-.1.8-.2.9,0,1.3.6.7,0,.9-.2,1.2-.5,0-.3-.2-.3-.2-.8.3-.2.8-.4.9-.7,0-.1,0-.3.2-.5.2-.2.6-.2.7-.4.2-.4-.2-.7.5-.8.2.1.4.2.5.4.1.2,0,.5,0,.8.2.2.6.4.8.7h.3c.2-.2.5-.8.9-.8.4-.3.8.2,1.2.2.1-.2.2-.5.4-.8.3-.4.7,0,.7-.8,0,0,0-.2,0-.2.1-.2.4-.2.5-.5,0-.1,0-.2,0-.3,0-.2,0-.4,0-.6,0,0,.2-.2.3-.2.3-.1.6,0,.9,0,.2-.3.5-1.4,0-1.7-.2-.2-.5,0-.8,0-.2-.2-.3-.3-.4-.5v-.4c.2-.1.4-.3.4-.6-.2-.3,0-.8-.6-.8-.2.2-.5.5-.7.7,0,.6.3,1.5-.3,1.7-.4.3-.8-.3-1.2-.4,0,.2-.1.6-.2.8-.4.2-1.1.2-1.6.1-.2-.2-.5-1.1-.7-1.2-.3-.2-.7.4-1.2.3-.4,0-.5-.5-.8-.7-.2,0-.3,0-.5,0-.3-.2-.4-.5-.8-.5-.3-.1-.5.5-.9.5-.2.1-.7,0-.8-.1-.4-.6-.4-.9-.4-1.9.2-.1.3-.2.3-.5-1-.7-1.7.2-2.7.3-.1-.1-.3-.2-.4-.3-.2-.2,0-.5-.4-.6-.3-.2-.8.1-1.2,0-.7-.2-1.3-.7-1.8,0-.2.3.2,1-.2,1.2-.2.2-.5-.2-.9,0-.1.3,0,.5,0,.9,0,.1,0,.2-.1.4-.5.3-1.3.5-2,.4-.3-.5-.5-1.4-1.3-1.5-.3,0-.6.3-1,.1-.3-.1-.7-.7-.8-1.1,0-.2,0-.4,0-.5-.1-.3-.4-.6-.6-.8-.4,0-.6.3-.9.2-.3,0-.6-.4-1.1-.3-.5.1-1.3.7-1.8.5-.2,0-.5-.4-.7-.6-.2,0-.3,0-.5,0,0,.1,0,.2,0,.4.3.3.6.2.9.4,0,0,.5.8.6.8,0,.3,0,.6,0,.9,0,.2.1.6.2.8,0,.5-.1,1,.3,1.2,0,0,0,0,0-.2-.2-.2-.3-1.6-.3-2,0,0,0,0,0,0,0,0,0,0,0,0,.1.1.2.4.2.5.2,0,.2,0,.4-.1.1.1.3.2.4.4.2.4,0,1,.2,1.5,0,.5,0,1.1.1,1.6.1.6.2,1.4.2,2.1.2.1.6.2.8.2,0,.2.2.5.3.7,0-1.3-.2-2.2-.2-3.4h0s0,0,0,0c.2.2,0,.6.1.9.2.8.2,1.8.3,2.6,0,.3-.2.3-.1.5,0,0,.2,0,.3,0,0,0,0,0,0,0,0-.2,0-.3,0-.6-.2-.2,0-.6,0-.9-.1-.6-.2-1.3-.2-2,0,0,0,0,.2,0,0,.1.1.2.2.3h0c0-.2,0-.3,0-.5.2,0,.2,0,.4,0" style="fill: #fff; fill-rule: evenodd; stroke-width: 0px;"/>
            <path d="M20.3,42c.1,0,.2-.2.3-.3.2-.1.4,0,.6-.2.4-.2.9-.6.9-1.1-.4-.3-.2-.8-.4-1.4-.3-1.2-.4-2.5-.5-3.8-.6-.3-1.4-.2-1.8-.7-.2-.3-.1-1.2-.5-1.4-.5-.3-1.1.5-1.1,1,0,0,0,.1,0,.2.4.2.9.4,1,.9.1.4,0,.8,0,1.2,0,.3.3.8,0,1-.1,0-.5,0-.6,0,0,0,0,.1,0,.2.1.2.2.6,0,.8-.2.5-1,.6-1.1.9-.1.2-.1.8,0,1,0,.1,0,.4.2.6,0,.1.3.2.3.4v.7c0,.3,0,.7,0,1h-.2s0,0,0-.1c-.2-.3,0-.9-.2-1.2,0,0,0,0-.2,0,0,.1-.2.2-.3.4-.2.2,0,.7,0,.9h.1v-.5c0,0,0,0,.2,0,0,0,0,0,0,.1.1.2,0,.6,0,.8,0,0,.1,0,.2.1.4.3,2.4,0,2.5-.3.1-.2.1-.7.1-1.1h0ZM18.7,42.9c-.1,0-.5-.2-.5-.4-.3-.3-.3-2-.3-2.6.2-.2.3-.3.4-.6h.1c0,0,0,0,0,.3.2.3,0,.7.1,1,.1.5.3,1.8.1,2.4h0ZM19.3,42.9c0,0,0,0,0,0-.2-.3-.1-.9-.2-1.3-.1-.5-.5-2.5-.3-2.9h.2s0,0,0,.1c.2.2,0,.6.1,1,0,.4,0,1,.1,1.4.1.5.2,1.1.2,1.7,0,0,0,0,0,0h0ZM20,40.3c-.1-.5-.2-1.1-.3-1.6v-.7c0-.4-.2-.9-.1-1.3,0,0,0,0,.2,0,0,0,.1.2.2.3.1.4,0,.9.1,1.2,0-.9-.2-1.7,0-2.4,0,0,0,0,.1,0,0,.1,0,.3.2.4.1,0,.5,0,.7,0,0,.1,0,.2,0,.4.2.3,0,.9.1,1.2.2.8.4,2.2.3,3-.2,0-.3.2-.5.2,0-.1-.1-.4-.2-.5,0,.2,0,.3,0,.4,0,0,0,0-.1,0-.3-.5-.3-1.5-.5-2.1,0-.2,0-.5,0-.6,0,1.2.2,2.2.2,3.4,0,0,0,0-.2,0h0c-.2-.4,0-1-.2-1.4Z" style="fill: #fff; fill-rule: evenodd; stroke-width: 0px;"/>
            <path d="M35.4,41.8c-.6.4-1.1-.2-1.6,0-.4.1-.7.2-1.1.4-.2.1-.3.3-.5.5-.2.1-.5.2-.7,0-.6-.2-.7-.9-1.1-1.3-.6,0-1.1.3-1.6.1-.3,0-.7-.7-1.1-.6-.3,0-.3.3-.5.4-.3.2-.8.5-1.1.5-.6.2-1.1-.5-1.7-.3-.4.1-1.5,1.2-1.8,1.6,0,.5.3,1.1-.2,1.3-.3.2-.8.1-1.2.3-.5.2-.7.9-1.2,1-.4.1-.6-.3-.9-.4-.3,0-.5,0-.6.1-.3,0-.6,0-.9,0-.3-.4-.6-.7-1.4-.7,0,.1-.1.1-.1.4.2.2.3.4.3.8,0,0-.1.2-.2.2-.4.2-.5,0-.5.7.2.1.1.2.5.2,0,0,0,0,0,0,0-.2,0-.3.1-.5.1,0,.2-.2.5-.2,0,.1.1.2.1.4.1.2,0,.6,0,.8-.2,0-.3.2-.3.5,0,0,0,.3.1.4,0,0,0,0,.1,0,0-.2.2-.5.4-.6.2-.2.5-.2.7-.4.2-.3,0-1,0-1.4,0,0,0,0,0,0,.1.1,0,.3,0,.5.1.6.1,1.3.6,1.6.2.1,1,.1,1.4.1,0-.1,0-.3,0-.5-.1-.2,0-.5,0-.7h.2s0,0,0,0c0,.4,0,.7,0,1.2.2.1.4.2.6.4.6,0,.7-.3,1.1-.5.1,0,.2,0,.4,0,.2-.1.4-.3.6-.4.3,0,.5,0,.8,0,0,0,0,0,0-.2,0,0,0,0,0,0-.2,0-.3,0-.3-.2-.2-.2-.4-1.8,0-1.9.1.1.4.2.5.4.1.2,0,.7.2.8,0,0,0,0,0,0v-.4c0,0,0-.2,0-.4,0,0,0,0,0,0,0,0,0,0,.1,0,0,.3.4,1.8.2,2.2,0,.1-.1.1-.2.3.2.1,1,.6,1.2.2.1-.2,0-.7,0-.8,0-.6-.2-2.1-.1-2.4,0,0,0,0,.1,0,.1.8.2,1.8.4,2.5,0,0,.1,0,.2,0,0,0,0,0,0,0,0-.7-.1-1.2-.1-1.9h0c0,0,.1,0,.2,0,0,.6.1,1.3.3,1.8h.1c0-.2,0-.4,0-.7-.1-.2-.1-.8,0-1h0c0,0,0,0,0,0,.1,0,.1.1.1.3.2.3.1,1.3.2,1.7.1,0,.1,0,.3,0h0c.2-.3-.1-1.7-.1-2.2,0,0,0,0,0,0,0,0,0,0,.1,0,0,.5.1,2.5.5,2.6.1-.2.1-.5,0-.8-.1-.2-.2-1.6,0-1.7,0,0,0,0,0,0,.2.2.3,1.8.4,2.2h0s0,0,0,0v-.8c-.2-.2,0-.7,0-.8,0,0,0,0,.1,0,.2.5,0,1.3.3,1.7,0,0,0,0,.1,0v-.4c0-.1-.3-1.8-.2-2,0-.2.3-.2.4-.3,0-.1,0-.3,0-.4,0,0,0,0,.1,0,.1.6,0,1.3.2,1.9,0,.2.1.4,0,.6,0,.2-.2.3-.2.5.2,0,.3,0,.4-.2.2-.3,0-1.1,0-1.4.1,0,.3,0,.5,0,.5-.1.6-.3,1.2-.2.1.2.3.5.5.6.2.2.4,0,.7,0,0,0,0,0,0-.1,0-.2,0-.4,0-.5,0-.4.2-1.2.4-1.4.1-.2.9-.6,1.1-.7.2,0,.3,0,.5,0,.3-.2.5-.7.7-1.1.3-.6.5-1.2-.5-1.2h0ZM17.8,46.9h0s-.2,0-.2,0c-.1,0,0,.1-.3.2,0,0,0,0,0,0,0-.4-.1-.9,0-1.3.2,0,.2.2.3.4.1,0,.1-.1.3-.1,0,0,0,.1,0,.3,0,.1,0,.5,0,.7h0ZM19.2,47.7c-.2,0-.4-.1-.5-.3,0-.1-.1-.7,0-.8,0-.3.2-.3.4-.5.1,0,.2,0,.2.3.2.3.1,1,0,1.2h0ZM22.1,47.6c0,0-.1-.1-.2,0-.2.2-.4.3-.5.5-.3-.2-.2-.7-.4-1v.9c0,0,0,0-.2,0-.2-.7-.4-1.7-.2-2.5,0,0,0,0,.2,0,0,0,0,0,.1.1,0-.1,0-.3.1-.4.4,0,.7.1,1,.3.2.5.2,1.3.2,2.1,0,0,0,0-.2,0h0Z" style="fill: #fff; fill-rule: evenodd; stroke-width: 0px;"/>
            <path d="M35.7,52.4c-.2-.1-.4,0-.6,0-.2,0-.4,0-.6,0-.2-.2-.4-.7-.3-1.2,0-.2.2-.4.1-.6,0-.3-.2-.7,0-1.1,0-.3.2-.5.2-.8,0,0,0,0-.3,0-.4-.3-1,.2-1.2.2-.3,0-.6-.3-.8,0-.4.1-.7.7-1,1,0,.7.3.9.3,1.6-.1,0-.2.2-.4.3-.8-.2-1.3-1-1.8-1.5-.5.2-.7.6-1.4.6-.2-.2-.4-.2-.6-.4-.2-.2-.4-.5-.7-.6-.2,0-.5-.2-.7,0-.4.2-.2.7-.8.9-.8.2-1.3-.6-1.9-.6-.2.3-.5.7-.8.9s-.6,0-1,.2c-.2,0-.4.2-.6.2-.8-.1-1.4-.9-1.9-1.5-.4,0-.7.1-.8.4,0,0,0,.1,0,.2.2.2.4.4.6.6,0,.6-.4.7-.5,1.1-.1.4.2.8.3,1.1.1.6-.2,1,.6,1,.8-.6,1.5.5,1.8.5,0-.8-.1-1.3-.1-2h0c0,0,0,0,0,0,.1.2,0,.4.1.7.2.7.3,1.5.3,2.4,0,0,0,0,0,0,0,0,0,0,0,0-.1-.1-.1-.4-.2-.6h0c-.1.2-.2.3-.2.6.1.2.2.4.4.5,0,0,.1,0,.2,0,.2-.4.5-.4,1-.5v-.2c-.2,0-.3-.2-.5-.3q0,.2-.2.2s0,0,0-.1c-.2-.3-.2-1.5-.2-2.1,0,0,0,0,0,0,.1,0,.2.2.3.2.1,0,.2,0,.3,0l.5.4c0,0,0,.3,0,.4.2.1.2,0,.4.1.3.4.2,1.8.2,2.4.7.2,1,.1,1.5.7h0c.1-.2,0-.9,0-1h0s0,0,0,0c0,0,0,.2-.2.3,0,0,0,0-.1,0v-.3c.1-.2,0-.6,0-.8,0-.6,0-1.3-.1-1.9,0,0,0,0,0,0,0,0,0,0,0,0,.3.3,0,1,.2,1.4,0,.2.3.2.4.3,0,.3,0,.5,0,.8.2.6.4,1.7.2,2.4,0,0,0,0-.2,0,0-.2-.1-.4,0-.7,0,0,0-.3,0-.5h0c-.4.5.2,1.9.7,1.9,0-.2,0-.5,0-.8-.2-.3-.3-1.8-.3-2.2,0,0,0,0,.2,0,0,.1,0,.2,0,.4.2.3.2,1.7.3,2.1s-.2.8.3.9c.2-.3.5-.5.7-.8.4,0,.6.2,1,.2,0,0,0,0,0-.1.1-.2,0-.8,0-1,0-.4,0-.8,0-1.2-.1-.5-.2-1.1-.1-1.6h.1s0,0,0,0c.1,1.3.3,2.7.5,3.9,0,0,.1,0,.3,0,.5-.5.5-.4.5-1.3-.1-.2-.2-1.2-.2-1.6,0,0,0,0,.2,0,0,0,0,0,0,.3.2.3.1,1.3.3,1.7,0,0,0,0,.2,0,0,0,0-.2,0-.4-.2-.2-.2-1.5-.1-1.8,0,0,0,0,.2,0q0,0,.2.1c0-.5-.1-1.1,0-1.6h.1c.2.3,0,.7.1,1,.1.6.4,1.9.3,2.5h-.2s0,0,0,0c0-.4,0-1.2-.3-1.4,0,0,0,0,0,0v.7c.2.3,0,.9.3,1,.1,0,.3,0,.5,0,0-.1,0-.3,0-.5,0,0-.3-1.5-.2-1.7.1,0,.2-.2.3-.3.1-.3-.1-.5.1-.6,0,0,0,0,0,.3.2.3.2,1.7.2,2h0c0,0-.2-.2-.3-.2v.7c0,0,0,.2.2.3h0s0,0,0,0c.8-.3.4-1.4.4-2.3h0s0,0,0,0c0,0,0,0,0,.3.1.2,0,.5.3.6h0c.1-.3,0-.8,0-1h0c.2.4,0,.8.6.8.2,0,.5,0,.7,0,.5-.2.7-.9.9-1.2.2-.2.4-.3.6-.5.2,0,.5,0,.8,0,.3,0,.5.2.8.1h0c.2-.3-.4-2-.6-2.1h0ZM20.5,53.2c0,0,0,0-.2,0,0-.2-.1-.4-.2-.5h0c-.1.2,0,.5-.2.5h0s0,0,0,0c-.2-.2-.1-1-.1-1.4,0,0,0,0,0,0h0c0,0,.1.2.2.2,0-.1,0-.2.1-.3.2,0,.2.1.2.4.1.2,0,.7,0,1.1Z" style="fill: #fff; fill-rule: evenodd; stroke-width: 0px;"/>
          </g>
          <path d="M45.5,79.6c-18.7,0-33.9-15.4-33.9-34.3S26.8,11,45.5,11s33.9,15.4,33.9,34.3-15.2,34.3-33.9,34.3ZM45.5,11.3c-18.5,0-33.6,15.3-33.6,34s15.1,34,33.6,34,33.6-15.3,33.6-34S64,11.3,45.5,11.3Z" style="fill: #fff; stroke-width: 0px;"/>
          <polygon points="35.2 16.2 34.9 16.2 34.3 14.5 35.5 14 35.6 14.3 34.6 14.6 34.8 15.1 35.7 14.8 35.7 15 34.9 15.3 35.2 16.2" style="fill: #fff; stroke-width: 0px;"/>
          <path d="M36.9,13.8c-.4.1-.5.5-.4.9.1.4.5.7.8.6s.5-.5.4-.9c-.1-.4-.5-.7-.8-.6M37.4,15.5c-.7.2-1-.3-1.2-.7-.1-.4,0-1,.6-1.2.7-.2,1,.3,1.2.7.1.4,0,1-.6,1.2" style="fill: #fff; stroke-width: 0px;"/>
          <path d="M39.7,13l.2,1.2c0,.4-.1.7-.6.8-.5,0-.8-.2-.8-.5l-.2-1.2h.2s.2,1.1.2,1.1c0,.4.3.5.6.4s.5-.2.4-.6l-.2-1.2h.2" style="fill: #fff; stroke-width: 0px;"/>
          <polygon points="41.7 12.7 41.9 12.6 42.2 14.5 41.9 14.5 40.7 13.2 40.7 13.2 40.9 14.7 40.7 14.7 40.4 12.8 40.7 12.8 41.9 14.2 41.9 14.2 41.7 12.7" style="fill: #fff; stroke-width: 0px;"/>
          <path d="M43,14.2h.5c.3,0,.5-.3.5-.8,0-.5-.3-.7-.6-.7h-.5s0,1.5,0,1.5M42.6,12.6h.8c.5,0,.8.3.8.8,0,.4-.1,1-.7,1h-.8c0,0-.1-1.8-.1-1.8Z" style="fill: #fff; stroke-width: 0px;"/>
          <polygon points="46.2 14.3 44.8 14.3 44.8 12.5 46.1 12.4 46.1 12.7 45 12.7 45 13.3 46.1 13.2 46.1 13.5 45 13.5 45.1 14.1 46.2 14.1 46.2 14.3" style="fill: #fff; stroke-width: 0px;"/>
          <path d="M46.9,14.1h.5c.3,0,.6-.2.6-.6,0-.5-.2-.7-.5-.8h-.5s0,1.4,0,1.4M46.8,12.4h.8c.5,0,.8.5.7,1,0,.4-.2.9-.9.9h-.8c0,0,.1-1.9.1-1.9h0Z" style="fill: #fff; stroke-width: 0px;"/>
          <path d="M50.7,14.8h-.2s.2-1.3.2-1.3h-.4c0,0,0-.2,0-.2.3,0,.4,0,.5-.3h.2s-.3,1.8-.3,1.8" style="fill: #fff; stroke-width: 0px;"/>
          <path d="M52.8,13.8c0-.1,0-.3-.3-.3-.2,0-.3.1-.4.2,0,.2,0,.3.2.4.2,0,.3,0,.4-.2M51.9,14.5c0,.1,0,.4.3.4.2,0,.4,0,.4-.3,0-.2,0-.4-.3-.4-.2,0-.4,0-.5.2M52.7,14.2c.2.2.2.4.2.5,0,.3-.3.5-.7.4,0,0-.3,0-.4-.2-.2-.2-.1-.4,0-.5,0-.2.2-.3.4-.4-.1,0-.2-.2-.2-.4,0-.2.2-.5.7-.4.4,0,.5.4.5.6,0,.3-.2.3-.3.3" style="fill: #fff; stroke-width: 0px;"/>
          <path d="M53.5,14.2c.2-.6.6-.5.8-.5.3,0,.5.4.4.7,0,.3-.3.4-.6.4h-.2c-.3.1-.4.2-.4.3l1,.3v.2c0,0-1.3-.4-1.3-.4.1-.4.3-.5.6-.6h.3c.2-.1.4-.2.4-.4,0-.1,0-.3-.3-.4-.3-.1-.4.2-.5.3h-.2" style="fill: #fff; stroke-width: 0px;"/>
          <path d="M55.1,15.2l.6.2.3-.8h0l-.8.6h0ZM55.8,15.6l-.2.4h-.2c0,0,.2-.5.2-.5l-.8-.3v-.2c0,0,1.2-.8,1.2-.8h.2c0,0-.4,1.2-.4,1.2h.2c0,0,0,.3,0,.3h-.2c0,0,0,0,0,0Z" style="fill: #fff; stroke-width: 0px;"/>
          <polygon points="30.2 74.5 30 74.4 30.9 72.7 31.1 72.8 30.2 74.5" style="fill: #fff; stroke-width: 0px;"/>
          <polygon points="32.8 73.7 33 73.8 32.2 75.5 32 75.4 31.8 73.6 31.8 73.6 31.1 75 30.9 74.9 31.7 73.2 32 73.3 32.2 75.1 32.2 75.1 32.8 73.7" style="fill: #fff; stroke-width: 0px;"/>
          <path d="M34.6,75c0-.3-.2-.5-.3-.6-.3-.1-.7,0-.8.5-.2.4-.2.8.3.9.2,0,.5,0,.7-.3h.2c-.4.7-.9.5-1,.5-.4-.2-.7-.6-.4-1.2.2-.5.7-.8,1.2-.6.5.2.6.6.5.9h-.2" style="fill: #fff; stroke-width: 0px;"/>
          <path d="M36.3,75.2c-.4-.1-.7,0-.9.5-.1.4,0,.8.4.9.4.1.7,0,.9-.5.1-.4,0-.8-.4-.9M35.7,76.9c-.7-.2-.7-.8-.5-1.2.1-.4.5-.9,1.2-.6.7.2.7.8.5,1.2-.1.4-.5.9-1.2.6" style="fill: #fff; stroke-width: 0px;"/>
          <path d="M37.6,76.3h.6c.2.2.4.2.4-.1,0-.3-.1-.3-.3-.4h-.6c0-.1-.1.5-.1.5M37.4,77.3h-.2c0,0,.4-1.9.4-1.9l.8.2c.3,0,.6.2.5.6,0,.3-.2.3-.3.4,0,0,.2.1.1.4v.3c0,0,0,.1,0,.2h0s-.3,0-.3,0c0-.1,0-.4,0-.5,0-.2,0-.3-.2-.4h-.6c0-.1-.2.6-.2.6h0Z" style="fill: #fff; stroke-width: 0px;"/>
          <path d="M39.7,76.8h.5c.2.1.4,0,.4-.2,0-.2,0-.3-.3-.4h-.5c0,0-.1.6-.1.6M39.5,77.8h-.2s.3-1.9.3-1.9l.8.2c.3,0,.5.3.5.6,0,.3-.2.5-.6.4h-.6c0,0-.1.7-.1.7h0Z" style="fill: #fff; stroke-width: 0px;"/>
          <path d="M42.3,76.5c-.4,0-.7.2-.7.7,0,.4.2.8.5.8.4,0,.7-.2.7-.7,0-.4-.2-.8-.5-.8M42.1,78.2c-.7,0-.8-.7-.8-1.1,0-.4.3-.9,1-.9.7,0,.8.7.8,1.1,0,.4-.3.9-1,.9" style="fill: #fff; stroke-width: 0px;"/>
          <path d="M43.9,77.3h.6c.2,0,.4,0,.4-.3,0-.3-.2-.3-.3-.3h-.6v.6M43.9,78.3h-.2v-1.9s.9,0,.9,0c.3,0,.6.1.6.5s-.2.4-.3.4c.1,0,.2,0,.2.4v.3c0,0,0,.1,0,.2h0s-.3,0-.3,0c0-.1,0-.4,0-.5,0-.2,0-.3-.3-.3h-.6v.8s0,0,0,0Z" style="fill: #fff; stroke-width: 0px;"/>
          <path d="M46.7,77.5l-.3-.8h0l-.3.8h.6ZM46.1,77.8l-.2.6h-.3l.7-1.9h.3l.7,1.8h-.3l-.2-.5h-.8Z" style="fill: #fff; stroke-width: 0px;"/>
          <polygon points="47.2 76.4 48.7 76.3 48.7 76.5 48.1 76.6 48.2 78.2 48 78.3 47.8 76.6 47.2 76.7 47.2 76.4" style="fill: #fff; stroke-width: 0px;"/>
          <polygon points="50.8 77.9 49.4 78.1 49.2 76.3 50.5 76.1 50.5 76.3 49.4 76.4 49.5 77 50.5 76.9 50.6 77.1 49.6 77.2 49.6 77.9 50.8 77.7 50.8 77.9" style="fill: #fff; stroke-width: 0px;"/>
          <path d="M51.6,77.6h.5c.3-.2.5-.5.4-.9s-.4-.7-.7-.6h-.5c0,0,.3,1.5.3,1.5M51,76l.7-.2c.5,0,.8.2,1,.7,0,.4,0,1-.6,1.1l-.7.2-.4-1.8Z" style="fill: #fff; stroke-width: 0px;"/>
          <path d="M55.6,76.7h-.2c0,0-.4-1.2-.4-1.2h-.4c0,.1,0,0,0,0,.3-.1.4-.2.3-.5h.2c0,0,.6,1.7.6,1.7" style="fill: #fff; stroke-width: 0px;"/>
          <path d="M56.5,75.9c0,.1.2.3.5.2.2,0,.3-.2.2-.5,0-.2-.3-.3-.5-.2-.2,0-.3.3-.2.5M56.8,74.8c0,0-.2-.2-.4-.1-.2,0-.2.3-.2.4,0,.2.2.2.4.1.2,0,.2-.2.2-.4M57,75.2c.3,0,.4.2.4.3.1.3,0,.6-.4.8,0,0-.3,0-.5,0-.2,0-.3-.2-.3-.3,0-.2,0-.4.1-.5-.2,0-.3,0-.4-.2,0-.2,0-.5.3-.7.4-.2.6,0,.7.2,0,.2,0,.4,0,.4" style="fill: #fff; stroke-width: 0px;"/>
          <path d="M57.9,74.7c0,0,.1-.2.3-.2.3-.1.6,0,.8.3,0,.2.2.6-.3.9-.2,0-.5.1-.8-.2h.2c.1,0,.3,0,.5,0,.2,0,.3-.3.2-.5-.1-.2-.3-.3-.5-.2-.1,0-.2.2-.2.3h-.2c0,0-.3-.9-.3-.9l.9-.4v.2c0,0-.6.3-.6.3v.5" style="fill: #fff; stroke-width: 0px;"/>
          <path d="M60.5,74.7h-.2c0,.1-.6-1.1-.6-1.1l-.4.2v-.2c.2-.2.3-.2.2-.5h.2c0,0,.8,1.5.8,1.5" style="fill: #fff; stroke-width: 0px;"/>
          <path d="M5.1,48.4c-.4.2-1.3.5-1.1,1.9,0,.8.8,1.8,2.9,1.6,1.4-.2,2.6-.9,2.4-2.2-.1-.9-.7-1.5-1.7-1.5l-.2-1.6c1.7.1,3,1.1,3.2,3,.2,2-.9,3.7-3.6,4-2.7.3-4.3-1.1-4.5-3-.3-2.3,1.2-3.4,2.3-3.7l.2,1.6" style="fill: #fff; stroke-width: 0px;"/>
          <rect x="5.6" y="40.2" width="1.6" height="7.8" transform="translate(-37.7 49.7) rotate(-89)" style="fill: #fff; stroke-width: 0px;"/>
          <polygon points="11 38.6 10.7 40.2 4.4 39.1 4 41.4 2.6 41.2 3.7 35 5.1 35.2 4.7 37.5 11 38.6" style="fill: #fff; stroke-width: 0px;"/>
          <polygon points="12.8 32.4 12.2 33.9 9.5 32.8 4 33.6 4.7 31.8 8.4 31.5 5.8 28.9 6.5 27.2 10.1 31.3 12.8 32.4" style="fill: #fff; stroke-width: 0px;"/>
          <path d="M21.3,18.3c.7-.6,1.2-1.8-.2-3.4-1.4-1.6-2.7-1.2-3.4-.7-.7.6-1.2,1.8.2,3.4,1.4,1.6,2.7,1.2,3.4.7M16.8,13.1c.8-.7,3.1-2.1,5.5.6s.6,4.9-.1,5.5c-.8.7-3.1,2.1-5.5-.6-2.4-2.8-.6-4.9.1-5.5" style="fill: #fff; stroke-width: 0px;"/>
          <polygon points="27.2 15.3 25.8 16.2 21.8 9.5 26.5 6.7 27.2 7.9 23.9 9.9 24.8 11.4 27.7 9.6 28.4 10.8 25.5 12.6 27.2 15.3" style="fill: #fff; stroke-width: 0px;"/>
          <path d="M42.3,7.5h2s-1-3.1-1-3.1h0l-.9,3.1h0ZM41.3,10.4h-1.7s2.6-7.8,2.6-7.8h1.9s2.9,7.7,2.9,7.7h-1.8s-.5-1.6-.5-1.6h-2.9c0,0-.5,1.7-.5,1.7h0Z" style="fill: #fff; stroke-width: 0px;"/>
          <polygon points="53.6 3.4 55.1 3.6 53.8 11.3 52.2 11 50 5 50 5 49.1 10.4 47.6 10.2 48.9 2.5 50.6 2.8 52.7 8.7 52.7 8.7 53.6 3.4" style="fill: #fff; stroke-width: 0px;"/>
          <polygon points="62.1 6 63.5 6.5 60.7 13.8 59.2 13.2 58.3 6.9 58.2 6.9 56.2 12 54.8 11.5 57.6 4.3 59.2 4.9 60.1 11 60.2 11 62.1 6" style="fill: #fff; stroke-width: 0px;"/>
          <path d="M73.2,19.7l1.3,1.5,1.7-2.7h0s-3,1.2-3,1.2h0ZM70.4,20.8l-1.1-1.3,7.7-3,1.2,1.4-4.1,7.1-1.2-1.3.9-1.4-1.9-2.2-1.6.6h0Z" style="fill: #fff; stroke-width: 0px;"/>
          <path d="M79.8,26.5c.4.7.9,1,1.5.6.4-.2.8-.6.3-1.5l-1-1.8-1.8,1,.9,1.7M81.1,21.8l1.9,3.4c1,1.8-.2,2.9-.7,3.2-.8.4-1.6.4-2.2-.1,0,.7,0,1.1-1.2,1.8-1,.5-1.2.7-1.2,1h-.2c0,.1-.9-1.5-.9-1.5.3-.3.6-.5,1.3-.9.9-.5,1.2-.8.7-1.8l-.8-1.5-2.7,1.5-.8-1.4,6.8-3.8h0Z" style="fill: #fff; stroke-width: 0px;"/>
          <path d="M82.7,32.1l.6,1.8c.2.6.6,1,1.2.8.6-.2.7-.7.4-1.4l-.6-1.8-1.6.5M79.5,33.1l.6,1.9c.2.8.7,1.1,1.5.8.7-.2.7-.8.5-1.4l-.6-2-2,.6h0ZM85.2,29.7l1.2,3.6c.6,1.8-.4,2.6-1.2,2.9-1.1.3-1.6-.2-1.8-.4,0,1-.7,1.5-1.4,1.7-.6.2-1.2.1-1.7-.1-.6-.3-.9-.6-1.4-2.1l-1-3.1,7.4-2.4h0Z" style="fill: #fff; stroke-width: 0px;"/>
          <path d="M81.3,42.1c0,.9.7,2,2.9,1.9,2.2-.2,2.6-1.5,2.5-2.3,0-.9-.7-2-2.9-1.9-2.2.2-2.6,1.5-2.5,2.3M88.1,41.5c0,1-.1,3.8-3.7,4.1-3.6.3-4.3-2.3-4.4-3.4,0-1,.1-3.8,3.7-4.1,3.6-.3,4.3,2.3,4.4,3.4" style="fill: #fff; stroke-width: 0px;"/>
          <path d="M84.3,50.6c0,.8.1,1.3.9,1.4.4,0,1,0,1.1-1l.2-2-2.1-.2-.2,1.9M88.1,47.6l-.5,3.9c-.2,2-1.8,2.2-2.5,2.2-.8,0-1.5-.6-1.7-1.4-.4.6-.6.9-2.1.7-1.1-.1-1.4-.2-1.6.2h-.2s.2-1.8.2-1.8c.4,0,.8,0,1.6,0,1.1.1,1.5.1,1.6-1.1l.2-1.7-3-.4.2-1.6,7.7,1h0Z" style="fill: #fff; stroke-width: 0px;"/>
          <polygon points="22.4 82.3 21.2 81.4 25 76.2 24.9 76.2 20 80.6 18.7 79.6 21.3 73.6 21.3 73.6 17.5 78.8 16.3 77.9 20.9 71.6 22.8 73 20.3 78.8 20.3 78.8 25 74.7 26.9 76.1 22.4 82.3" style="fill: #fff; stroke-width: 0px;"/>
          <rect x="23.4" y="79.7" width="7.8" height="1.6" transform="translate(-56.8 68.2) rotate(-63)" style="fill: #fff; stroke-width: 0px;"/>
          <path d="M35.4,82.3c0-.5,0-1.4-1.2-1.8-.7-.2-2-.1-2.7,1.9-.5,1.3-.3,2.7,1,3.1.8.3,1.6,0,2.1-.8l1.5.5c-.9,1.5-2.3,2.2-4.1,1.6-2-.7-2.9-2.5-2-5,.9-2.6,2.8-3.4,4.7-2.7,2.2.8,2.6,2.6,2.3,3.7l-1.5-.5" style="fill: #fff; stroke-width: 0px;"/>
          <polygon points="39.6 84.9 39.4 88.4 37.8 88.3 38.3 80.5 39.9 80.6 39.7 83.6 42.7 83.8 42.9 80.9 44.6 81 44 88.7 42.4 88.6 42.6 85.1 39.6 84.9" style="fill: #fff; stroke-width: 0px;"/>
          <rect x="46.8" y="80.9" width="1.6" height="7.8" transform="translate(-5.8 3.5) rotate(-4)" style="fill: #fff; stroke-width: 0px;"/>
          <path d="M54.3,83.5l3.2-.7.9,4.1-1,.2-.4-.9c-.3.6-.7,1.4-2.1,1.7-1.8.4-3.8-.5-4.4-3.2-.5-2.1.2-4.3,2.8-4.8,2.3-.5,3.6.8,3.9,1.8l-1.6.4c0-.3-.8-1.1-1.9-.9-1.1.3-2,1.3-1.5,3.2.5,2.1,1.7,2.3,2.8,2.1.3,0,1.5-.5,1.5-2.1l-1.8.4-.3-1.3" style="fill: #fff; stroke-width: 0px;"/>
          <path d="M62,82.2l1.8-.8-2.1-2.4h0l.3,3.2h0ZM62.3,85.3l-1.6.7-.6-8.2,1.7-.8,5.6,6-1.6.7-1.1-1.3-2.6,1.2.2,1.7h0Z" style="fill: #fff; stroke-width: 0px;"/>
          <polygon points="68.6 72.5 69.8 71.5 74.5 77.7 73.2 78.7 67.3 76.2 67.3 76.2 70.6 80.6 69.4 81.5 64.7 75.3 66.1 74.3 71.8 76.8 71.8 76.8 68.6 72.5" style="fill: #fff; stroke-width: 0px;"/>
          <path d="M44.1,54.9c0,0,0,0,0,.1h0c0-.1,0-.1,0-.1" style="fill: #653a2b; fill-rule: evenodd; stroke-width: 0px;"/>
          <path d="M49,61.2c.6,0,.9.3,1.3.4.2,0,.5,0,.8,0,.2,0,.5.3.7.5.4.2.8.4,1.2.6.3.2.6.4,1.1.5s.9-.2,1.1-.4c.6-.4,1.1-1,1.7-1.4.1,0,.2-.3.4-.4.6-.2,1.4-.1,1.9-.5h0c0-.2-.2-.3-.4-.5,0,0-.6.2-.7.3-.2,0-.7,0-.8,0,0,0,0,0,0,0,0,0,.2-.2.2-.3h0c0,0-1-.5-1.1-.5v.2c-.2.2-.5.5-.6.7-.3,0-.3-.4-.3-.7-.1,0-.3.2-.4.3,0,.2,0,1-.2,1.2-.3.2-1.2.2-1.5,0-.2-.1-.2-.4-.5-.5-.7-.4-1.5-.5-2.3-.8-.3-.1-.4-.4-.7-.5-.4-.2-1,0-1.2-.4-.3-.4-.2-1.2,0-1.5-.2-.1-.2-.3-.3-.5,0,0-.2-.1-.3-.2,0-.1,0-.3-.1-.4-.2-.2-.4-.5-.6-.8,0-.4.3-.2.5-.5,0,0,0-.3.2-.4,0-.4-.3-.6-.5-.8v-.2c.1-.1.2-.2.4-.3,0-.3,0-.5-.2-.7-.6-.2-1.3-.4-2.1-.4,0,0,0,.1,0,.2,0,0,0,0-.1,0,0,0,0,0,0-.2,0,0-.2,0-.3,0v.5c0,0-.2.2-.2.3,0,0-.2,0-.3,0-.2,0-.3,0-.4,0,0-.2,0-.4.1-.5h0c-.9,0-1.6.6-2,1.2,0,0,.2.2.2.3.1.5-.2,1,0,1.5,0,.2.2.3.3.5.2.5,0,1-.2,1.2,0,0,0,0,0,0-.5,0-.5-.3-.8-.5-.3-.2-.7-.1-1-.3-.2,0-.3-.4-.5-.5,0,0-.2,0-.2,0-.8,0-.9.4-1.1.9-.6.1-1.2,0-1.4-.5-.2-.3,0-1.3,0-1.7-.2,0-.3,0-.5,0,0,.2,0,.5-.1.6,0,0,0,0,0,.1-.3,0-.4-.3-.4-.7-.4,0-.7-.2-1.2-.2-.2.2-.5.4-.7.6,0,.2.3.3.5.5.2.3.1.8.3,1.1.1.2,1.5,1.2,1.8,1.3.3.1,1.5.4,1.9.3.2,0,.5-.2.8-.1.1,0,.3.2.5.3.2,0,.4,0,.6,0,.2,0,1.1.5,1.3.7,1,.7.6,1.8.2,3,0,.2-.3.5-.2.8,0,.3.4.6.5.9s-.2,1.8-.3,2.1c-.2,1.1.2,2.2,0,3.3-.1.5-.3.9-.5,1.3-.2,0-.4.1-.6,0-.3,0-.5-.4-.9-.3-.7.2-1,1-1.7,1.2-.6.2-.9-.3-1.3-.4-.4,0-1.5.3-1.7.4-.1,0-.2.3-.3.4h0c1.2,0,2.7,0,3.8.2.5,0,.8-.2,1.2-.1.2,0,.4.2.6.2.3,0,.7,0,.9,0,.4,0,1.1-.3,1.7-.1.4,0,1,.4,1.7.2.3,0,.7-.2,1.1-.1.5.1,1.1.5,1.9.3.3,0,.7-.3,1.1-.2.3,0,.5.4.8.5.6.2,1.6-.3,2.2-.4.9-.2,1.9,0,2.7.3.3,0,.6,0,.9,0,.4,0,1.2.2,1.6,0,.1,0,.2,0,.2-.2,0,0,0,0,0,0,0,0,0,0,0,0-.4,0-.9-.2-1.3-.3h-.8c-.3,0-.7-.1-1-.2-.3,0-.4-.3-.6-.4-.3-.2-.7-.3-1-.4h-.6c0,0-.2-.2-.4-.2-.3,0-.5,0-.8,0-.2,0-.4-.3-.6-.4-.2,0-.5,0-.7,0-.3,0-.6-.6-.8-.8-.3-.5,0-1-.1-1.6,0-.3-.3-.5-.4-.8-.2-.5.2-.9.3-1.2.3-1.1-.3-1.9-.8-2.4,0-.4.1-.5.2-.7.1-.3.2-.8.2-1.1,0-.3,0-.7,0-.8,0-.1,0,0,.2-.2h0ZM54.7,61.8c.3,0,.6,0,.8,0h0c0,.2-.1.2-.2.3-.3,0-.4,0-.7,0v-.2h0ZM53.2,61.9c0,0,0,.1,0,.2-.4,0-.5-.2-.8-.3,0,0,0,0,0-.2.4,0,.6.1.8.3h0ZM51.8,60.7c.4,0,.7.2.9.4,0,0,0,.1,0,.2-.4,0-.7-.2-.9-.5,0,0,0,0,0-.1h0ZM36,55.4c0,0,0-.1,0-.2,0,0,0,0,0,0,0,0,0,0,0,0,0,0,0,0,0,0,.1,0,.1,0,.1.3h-.1ZM36.6,57.1c0,0,0,0-.1,0-.2,0-.2-.3-.4-.4,0-.1,0-.2,0-.2h.2c0,0,.2.1.3.2,0,.2,0,.3,0,.5h0ZM37.5,57.4c-.2,0-.2,0-.4-.1,0,0,0-.2,0-.3,0,0,0,0,0,0,.2,0,.2.2.4.3v.2h0ZM39.3,58.1c-.4,0-.7,0-1-.1v-.2c0,0,.2,0,.2,0,.4,0,.5,0,.8.1,0,0,0,0,0,0,0,0,0,.1,0,.2h0ZM41,57.3c.2,0,.3,0,.5,0h0c0,0,0,.1,0,.2-.2,0-.4,0-.5,0,0,0,0-.1,0-.2h0ZM39.8,56.9c0,0,0,0,0-.1.3,0,.4.3.4.6-.2,0-.7-.2-.5-.5ZM41.8,58.4c-.9,0-1.4-.3-2-.7,0-.3.3-.1.5-.3.2,0,.3.3.5.4.2,0,.4,0,.6,0,.2,0,.3.2.5.3,0,0,0,.1,0,.2h0ZM51.7,71.8c.2,0,1,0,1.1.2h0c-.3.2-.9.4-1.1.3-.1,0-.2,0-.2-.2,0,0,0,0,0,0,0,0,.1,0,.2-.1h0ZM51.2,72.3c0,.3-.2.2-.4.4-.2,0-.2,0-.3,0,0-.1,0-.2,0-.4,0,0,0,0,0-.1.4,0,.5.1.7.2h0ZM50.4,71.5h0c0,0,0,0,0,0h0ZM51.1,60.9h0s0,0,0,.1c-.7.1-.7,0-1.2-.3-.2,0-.4,0-.6-.2,0,0,0,0,0,0,.6,0,1.5,0,1.7.4h0ZM46.7,53.5c.1-.3.6-.5.8-.7h.2c0,.3-.4.3-.5.6,0,0,0,.2,0,.3,0,.4,0,.6.4.7v.3c0,0-.2,0-.3.1-.1,0-.1.3-.2.4,0,.8.5.8.8,1.3.2.2.2.6.3.8s.3.8,0,1c-.2.2-.5.2-.7.4-.2,0-.2,0-.3-.1,0-.5,0-1.2-.2-1.7-.1-.5-.4-.9-.5-1.3,0-.3.1-1.8.2-2h0ZM46.5,57.1h.1c.4.9.2,3.5-.3,4.1h0c0,0,0,0-.2,0,0-1.5.3-2.6.4-4ZM46.9,68.8c0,.4,0,.5,0,.8-.2-.3-.2-.7-.2-1.1l.2.2ZM46.8,63.1v-.2h.1v.2h-.1ZM46.4,66.4c-.2-.3,0-.8,0-1h0c0,.4-.2.6-.2,1ZM46.5,70.6h0c0,0,0,0,0,0h0c0,0,0,0,0,0ZM46,66.9c0,.3,0,.6,0,.8h0c0-.4,0-.9,0-1.4,0-.1,0-.3,0-.4,0-.2.2-.4.2-.5,0-.3,0-.7,0-1,0-.2,0-.4,0-.5,0-.3.2-.8.3-1.1,0,0,0,0,.1,0,0,.3,0,.6,0,.9-.2.8-.3,1.9-.5,2.8,0,.2,0,.3,0,.4h0ZM44.7,66.9h0c0,0,.1,0,.1,0,0,.5.2,1.7,0,2.1,0,0,0,0,0,0h0c-.4-.3-.3-1.7,0-2.1ZM44.1,67.2h0c-.4-.2.1-1.9.2-2.2.3.3,0,1.9-.2,2.2ZM44.8,65.5c-.2-.4-.1-1.3,0-1.7.2.2.3,1.4,0,1.6,0,0,0,0,0,0ZM44.6,62.1c-.1.2-.2.5-.4.6h0s0,0,0,0c-.2-.1-.2-.7,0-.9.1-.3.5-.4.6-.6.2-.3.4-.9.5-1.5h.1c0,.4.1,1.4,0,1.8-.2.2-.5.4-.6.6h0ZM45.7,60.9c0,.1.2,1.3,0,1.5,0,.2,0,.1,0,.2,0,0,0,0,0,0,0,0-.1-.2-.2-.3,0-.6.2-.9.4-1.5ZM46.3,69.6c.2.2,0,.6.1.8v.2h0c0-.1,0-.2-.2-.3,0-.3,0-.5,0-.7h0ZM46.5,70.8c.1.1.2.3.3.4-.2,0-.2-.2-.3-.3h0ZM46.7,68h0c0,0,0-.2,0-.3,0,0,0,0,0,0,0,.1,0,.2,0,.3h0ZM46.1,53.3h.3c0,.5,0,1.2-.1,1.5,0,.2,0,.2,0,.4h0c-.2-.4-.2-1.4,0-1.8h0ZM46.1,58.7v.6c0,.2-.1.3-.2.5,0,0,0,0,0,0h0c-.2-.7,0-.8,0-1.4,0-.5,0-1,0-1.4,0-.6-.3-.9-.2-1.4.8.2.5,2.4.4,3.1h0ZM45.5,53.6h.2c0,.4,0,.8,0,1h0c0,0-.1,0-.1,0,0-.1,0-.4,0-.5,0-.3,0-.5,0-.6ZM44.9,54.1c0,0,0,0,.2,0,0,1.6.9,2.9.4,4.5,0,.2,0,.6-.2.8h0c0,0,0,0,0,0-.1-.2-.3-.3-.4-.6-.3-1,.7-1.6.4-2.9,0-.4-.5-1.7-.4-2h0ZM44.4,54.2s0,0,.1,0c0,.1,0,.2,0,.3v.3c-.2,0-.3-.4-.2-.7ZM43.7,53.4c0,0,0,0,0,0,.2.1.4.8.2,1.1h0c-.2,0-.2-.3-.4-.5,0-.3,0-.5,0-.6ZM43.3,55c0-.2,0-.2,0-.3h.1c.1.4.2.7.2,1.2,0,0,0,0-.1,0,0-.1-.2-.2-.3-.3,0-.2-.1-.5,0-.6h0ZM42.8,58.7c0,0,0,0,0,.1-.2,0-.2,0-.3,0,0-.2,0-.4,0-.5.1,0,.3.2.3.4,0,0,0,0,0,0ZM43.1,58.2c0,0,.4-.6.5-.7,0,0,.1,0,.2,0,.6,0,.5-1,.4-1.5,0-.3,0-.6,0-.9.4.4.6,1.3.1,1.7,0,.2,0,.3,0,.4,0,0,0,0,0,0,.3,0,.3-.3.4-.5h.1c.1.7-.3,1-.4,1.6-.2,0-.3,0-.3,0-.3.2,0,.8-.1,1.2,0,.2-.2.3-.2.5-.2,0-.2,0-.2-.1,0,0,.4-.8.3-1.1-.2-.5-.5-.3-.8-.5h0ZM43.4,59.1h0c0,0,0,0,0,0,0-.2,0-.1,0-.2,0,0,0,0,0,.1ZM43.1,71.6c-.5.5-1.5.4-2.2.2-.2,0-.5,0-.6,0h0c0,0,0-.1,0-.2,0-.3.3-.3.5-.4.4,0,.5.2.8.3.4.1,1-.2,1.1-.4.4-.5.4-1.3.6-2.1,0-.5,0-1,0-1.5,0,0,.1-.3,0-.4,0,0,0-.3,0-.5.2-.7.3-1.7.5-2.4,0-.4-.4-.7-.6-.8,0-1.5.8-3,1.4-4,.4.2.4.9.2,1.3-.2.5-.6.6-.8.9-.2.2-.2,1-.1,1.4.2,1.1.1,2.6,0,3.7-.2.7,0,1.4,0,2,0,.4,0,.8,0,1.2-.1.6-.2,1.4-.6,1.7h0ZM43.7,71.5h-.1c0-.5.3-1.2.5-1.7,0-.2,0-.5,0-.6,0-.2,0-.3,0-.5,0,0,0,0,.1,0,0,.8,0,1.8-.3,2.5,0,0-.1.1-.2.3h0ZM44.8,72c-.2,0-.4,0-.6,0,0-.6.3-.7.5-1.1.2-.6.3-1.3.5-2,0-.4.1-.9.2-1.3,0-.2-.2-1-.2-1.2,0-.5.3-1.2.3-1.8,0-.5-.3-1.1-.2-1.7h.1c0,.2.1.3.2.5v1c0,.2.2.6,0,.9,0,.2-.2.3-.2.5-.1.4,0,1.4,0,1.7,0,.9.4,1.7.2,2.6-.2.7-.6,1.2-.8,1.8h0ZM47,72c-.2,0-1.6.1-1.7,0,0,0,0,0-.1,0,0-.7.3-1.1.6-1.5.4.1.8,1,1.2,1.3v.2h0ZM47,70.4h0s0,0,0,0c0,0,0,0,0,0v-.5c0,0,0,.2.2.4,0,.1,0,.2,0,.2ZM47,65.7c0-.3,0-1.7,0-1.9,0-.2,0-.1,0-.2,0,0,0,0,0,0,.2.2,0,.7,0,1,.1.4.4.7.5,1,0,.1,0,.3,0,.3-.1.6,0,1-.2,1.4h0s0,0,0,0c0-.2,0-.4,0-.6,0-.3,0-.8,0-1.1-.2,0-.3,0-.5,0h0ZM47.9,69.9c0,0,0,0-.1,0-.4-.2-.2-1.2-.2-1.7,0,0,0,0,.1,0,.3.4.2,1.1.2,1.7ZM48.2,71.2c-.3,0-.5-.4-.8-.7,0-.2,0-.2,0-.3.4.2.4.6.7.8h0ZM49.3,71.9c0,0,0,0,0,.1,0,0-.3.1-.4,0-.3,0-.4-.4-.5-.7.3.1.6.3.8.4h0ZM48.6,69.9c0,.3.3.4.3.7,0,0,0,0-.1,0-.2,0-.2-.2-.4-.3,0-.2,0-.4-.1-.6-.1-.6.2-1.1-.1-1.5v-.3h0c.6.3.2,1.4.4,2h0ZM48.4,66.7c0,0,0,0,0,0h0c0-.2-.1-.3,0-.5,0-.1.2-.4,0-.6,0-.1-.4-.6-.5-.7,0-.2,0-.2,0-.4h.2c.6.7.7,1.1.4,2.1h0ZM47.5,63.2h0c0-.1,0-.1.1-.2h.1s0,0,0,0h0s0,0,0,0c0,0,0,0,0,.1-.2,0-.2,0-.3,0h0ZM48.7,59.8c-.3-.1-.7-.5-1.2-.2,0,0,0,0-.1,0,0,0,0,0,0,.1.2,0,.5,0,.7,0,.1,0,.2,0,.2.2,0,0,0,0,0,0-.2.2-.5.4-.7.6,0,0,0,0,0,.1,0,0,0,0,0,0,0,0,.2-.1.3-.2,0,0,0,0,0,0h0s0,0,0,0c0,.4-.5.4-.6.7-.1.2,0,.3,0,.6-.3,0-.3-.3-.4-.5-.1,0-.2,0-.2,0,0,.2,0,.5,0,.6,0,.1,0,.1,0,.2,0,0-.1,0-.2,0,0,0,0,0-.1,0,0-.9.2-1.5.5-2.2,0-.1,0-.3,0-.4.2-.3.6-.4.8-.7.5,0,.5.5.9.6.5.2,1-.2,1.1.3,0,0,0,0,0,.1-.3,0-.5-.1-.8-.2-.2,0-.3,0-.5,0h0Z" style="fill: #fff; fill-rule: evenodd; stroke-width: 0px;"/>
          <path d="M26.8,23.6c-.5.4-1,0-1.6,0-.3.5-.3.6-.3,1.4h0c0,0,.1,0,.2,0,.1-.2.3-.5.5-.6,0,0,.3,0,.5,0,0,.1.1.2.2.3.3,0,.5,0,.6-.4,0-.1,0-.6,0-.7,0-.1,0-.1-.1-.2" style="fill: #fff; fill-rule: evenodd; stroke-width: 0px;"/>
          <path d="M66.4,36.4c0,.1,0,.2,0,.4,0,0,.2.3.3.4.3,0,.5,0,.5-.5,0,0,0,0,0,0-.2-.1-.3-.2-.6-.2" style="fill: #00ae42; fill-rule: evenodd; stroke-width: 0px;"/>
        </g>
      </g>
    </g>
  </g>
</svg>