<svg width="34" height="40" viewBox="0 0 34 40" fill="none" xmlns="http://www.w3.org/2000/svg">
<g clip-path="url(#clip0_2004_317)">
<path d="M23.2004 0L33.2004 10V36.7998C33.2004 38.5671 31.7675 39.9999 30.0002 40H4.00024C2.23293 40 0.800049 38.5671 0.800049 36.7998V3.2002C0.800049 1.43288 2.23293 0 4.00024 0H23.2004Z" fill="#D1F1EA"/>
<path d="M32.2617 9.0625H24.1375L33.2 18.125L33.2 10L32.2617 9.0625Z" fill="url(#paint0_linear_2004_317)"/>
<path d="M26.4 10L33.2 10L23.2 -8.74228e-07L23.2 6.8C23.2 8.56731 24.6326 10 26.4 10Z" fill="#D2EAEF" fill-opacity="0.37"/>
<path d="M9.43787 35V33.425H7.81787V35H9.43787Z" fill="#3F3F3F"/>
<path d="M13.3359 31.616L11.5629 35H13.0839L13.9839 33.002C14.0919 32.777 14.1369 32.642 14.1639 32.426H14.2089C14.2269 32.642 14.2719 32.777 14.3799 32.993L15.2979 35H16.8459L15.0639 31.643L16.6029 28.61H15.0999L14.3979 30.266C14.2989 30.464 14.2449 30.626 14.2269 30.86H14.1729C14.1549 30.626 14.0919 30.455 13.9929 30.257L13.2729 28.61H11.7609L13.3359 31.616Z" fill="#3F3F3F"/>
<path d="M19.268 28.61H17.846V35H21.977V33.821H19.268V28.61Z" fill="#3F3F3F"/>
<path d="M25.371 35.153C26.901 35.153 27.801 34.217 27.801 33.119C27.801 31.985 27.081 31.526 26.145 31.265L25.272 31.013C24.768 30.869 24.498 30.626 24.498 30.239C24.498 29.915 24.714 29.591 25.344 29.591C25.839 29.591 26.352 29.834 26.676 30.572L27.756 29.798C27.378 28.934 26.532 28.457 25.389 28.457C24.039 28.457 23.085 29.24 23.085 30.428C23.085 31.382 23.724 31.958 24.714 32.237L25.569 32.471C26.064 32.606 26.361 32.768 26.361 33.299C26.361 33.812 25.866 33.992 25.452 33.992C24.696 33.992 24.264 33.578 24.021 32.903L22.824 33.452C23.256 34.604 24.201 35.153 25.371 35.153Z" fill="#3F3F3F"/>
</g>
<defs>
<linearGradient id="paint0_linear_2004_317" x1="26.1687" y1="7.03125" x2="35.2312" y2="16.0937" gradientUnits="userSpaceOnUse">
<stop stop-opacity="0.2"/>
<stop offset="1" stop-opacity="0"/>
</linearGradient>
<clipPath id="clip0_2004_317">
<rect width="34" height="40" fill="white"/>
</clipPath>
</defs>
</svg>
