<svg width="34" height="40" viewBox="0 0 34 40" fill="none" xmlns="http://www.w3.org/2000/svg">
<g clip-path="url(#clip0_2004_186)">
<g filter="url(#filter0_ii_2004_186)">
<path d="M23.2004 0L33.2004 10V36.7998C33.2004 38.5671 31.7675 39.9999 30.0002 40H4.00024C2.23293 40 0.800049 38.5671 0.800049 36.7998V3.2002C0.800049 1.43288 2.23293 0 4.00024 0H23.2004Z" fill="#EDF6CC"/>
</g>
<path d="M9.43787 35V33.425H7.81787V35H9.43787Z" fill="#3F3F3F"/>
<path d="M13.3359 31.616L11.5629 35H13.0839L13.9839 33.002C14.0919 32.777 14.1369 32.642 14.1639 32.426H14.2089C14.2269 32.642 14.2719 32.777 14.3799 32.993L15.2979 35H16.8459L15.0639 31.643L16.6029 28.61H15.0999L14.3979 30.266C14.2989 30.464 14.2449 30.626 14.2269 30.86H14.1729C14.1549 30.626 14.0919 30.455 13.9929 30.257L13.2729 28.61H11.7609L13.3359 31.616Z" fill="#3F3F3F"/>
<path d="M20.276 33.407L20.627 31.418C20.69 31.058 20.762 30.563 20.807 30.221H20.879C20.843 30.86 20.816 31.67 20.816 32.129V35H22.022V28.61H20.429L19.961 30.977C19.898 31.337 19.835 31.805 19.826 32.084H19.754C19.745 31.805 19.682 31.337 19.619 30.977L19.151 28.61H17.558V35H18.764V32.129C18.764 31.67 18.737 30.86 18.701 30.221H18.773C18.818 30.563 18.89 31.058 18.953 31.418L19.304 33.407H20.276Z" fill="#3F3F3F"/>
<path d="M24.849 28.61H23.427V35H27.558V33.821H24.849V28.61Z" fill="#3F3F3F"/>
<path d="M32.2617 9.0625H24.1375L33.2 18.125L33.2 10L32.2617 9.0625Z" fill="url(#paint0_linear_2004_186)"/>
<path d="M26.4 10L33.2 10L23.2 -8.74228e-07L23.2 6.8C23.2 8.56731 24.6326 10 26.4 10Z" fill="#DFEBB0"/>
</g>
<defs>
<filter id="filter0_ii_2004_186" x="0.800049" y="-0.2" width="32.4004" height="40.4" filterUnits="userSpaceOnUse" color-interpolation-filters="sRGB">
<feFlood flood-opacity="0" result="BackgroundImageFix"/>
<feBlend mode="normal" in="SourceGraphic" in2="BackgroundImageFix" result="shape"/>
<feColorMatrix in="SourceAlpha" type="matrix" values="0 0 0 0 0 0 0 0 0 0 0 0 0 0 0 0 0 0 127 0" result="hardAlpha"/>
<feOffset dy="-0.4"/>
<feGaussianBlur stdDeviation="0.1"/>
<feComposite in2="hardAlpha" operator="arithmetic" k2="-1" k3="1"/>
<feColorMatrix type="matrix" values="0 0 0 0 0 0 0 0 0 0 0 0 0 0 0 0 0 0 0.3 0"/>
<feBlend mode="normal" in2="shape" result="effect1_innerShadow_2004_186"/>
<feColorMatrix in="SourceAlpha" type="matrix" values="0 0 0 0 0 0 0 0 0 0 0 0 0 0 0 0 0 0 127 0" result="hardAlpha"/>
<feOffset dy="0.4"/>
<feGaussianBlur stdDeviation="0.1"/>
<feComposite in2="hardAlpha" operator="arithmetic" k2="-1" k3="1"/>
<feColorMatrix type="matrix" values="0 0 0 0 1 0 0 0 0 1 0 0 0 0 1 0 0 0 0.3 0"/>
<feBlend mode="normal" in2="effect1_innerShadow_2004_186" result="effect2_innerShadow_2004_186"/>
</filter>
<linearGradient id="paint0_linear_2004_186" x1="26.1687" y1="7.03125" x2="35.2312" y2="16.0937" gradientUnits="userSpaceOnUse">
<stop stop-opacity="0.2"/>
<stop offset="1" stop-opacity="0"/>
</linearGradient>
<clipPath id="clip0_2004_186">
<rect width="34" height="40" fill="white"/>
</clipPath>
</defs>
</svg>
